<svg width="32" height="83" viewBox="0 0 32 83" fill="none" xmlns="http://www.w3.org/2000/svg">
<path d="M31.8209 79.3828C30.2912 79.0288 28.7698 78.5127 27.169 77.8055C27.1499 77.7961 27.1023 77.7398 27.0875 77.6893C26.9279 77.1192 26.8745 76.545 26.9236 75.9336C27.2371 72.0301 25.019 67.917 21.6502 66.1536C21.5786 66.1155 21.5039 66.0825 21.4179 66.0456L21.338 66.0109C21.2621 65.977 21.1697 65.9911 21.1084 66.0426C21.0423 66.0962 21.0094 66.1833 21.0229 66.2708L21.1151 66.8693C21.1969 67.399 21.277 67.9172 21.3538 68.436L21.3732 68.5717C21.5895 70.046 21.8131 71.5705 22.2488 73.0351C22.6419 74.3565 23.2485 75.3992 24.0922 76.1982C22.3098 75.0968 20.6489 73.7731 19.1405 72.2508C19.1088 72.2189 19.0712 72.1341 19.0658 72.0643L19.0254 71.0196C19.0251 70.9824 19.0247 70.8838 19.0448 70.835C19.7877 69.0211 19.978 66.9793 19.627 64.5934C19.2885 62.2922 18.351 60.1761 16.8402 58.3035C16.6634 58.0842 16.5074 57.9733 16.3764 57.9733C16.3445 57.9733 16.3156 57.9799 16.2929 57.9923C16.2234 58.0285 16.1764 58.0986 16.1672 58.1796L16.1268 58.544C16.0956 58.8146 16.0655 59.0801 16.0386 59.3462C15.992 59.8149 15.941 60.2829 15.8897 60.7511L15.8823 60.8187C15.7547 61.9878 15.6223 63.1967 15.5523 64.4071C15.471 65.8192 15.4951 67.4683 16.2915 68.9939C16.2958 69.0016 16.2996 69.0097 16.3038 69.0174C15.1968 67.5667 14.1862 66.0055 13.2846 64.3511C13.205 64.204 13.1981 64.0749 13.213 63.8876C13.2771 63.0956 13.6284 62.452 13.9983 61.8748C14.7129 60.757 15.1455 59.4359 15.401 57.5908C15.7582 55.0104 15.3975 52.4218 14.3295 49.8964C14.3002 49.8268 14.2659 49.7597 14.2293 49.6876L14.1458 49.5226C14.1059 49.4421 14.0205 49.3891 13.9305 49.3933C13.8406 49.3982 13.7614 49.458 13.7288 49.5447C13.4697 50.2294 13.2192 50.8891 12.9702 51.5439L12.8112 51.9623C12.2802 53.3597 11.6848 54.9913 11.3387 56.6746C11.0947 57.8625 11.0798 59.009 11.2938 60.1005C10.4636 58.0297 9.78111 55.8415 9.25845 53.5725C9.25254 53.5473 9.25065 53.4819 9.30242 53.331C9.54685 52.6299 9.99197 51.9942 10.556 51.5411C11.7907 50.5487 12.4911 49.1693 13.0133 47.951C14.0825 45.4593 14.3725 42.8123 13.8997 39.8581C13.8948 39.8271 13.8858 39.7964 13.8751 39.7629L13.8666 39.7362C13.8461 39.67 13.7993 39.6165 13.7373 39.5885C13.6768 39.562 13.6007 39.567 13.5537 39.5913C13.5064 39.6093 13.4348 39.6368 13.3882 39.7084C13.1206 40.083 12.849 40.4611 12.5771 40.8388L12.5315 40.9025C11.846 41.8565 11.137 42.8425 10.4558 43.8248C9.66646 44.9596 9.10906 46.0628 8.7514 47.1974C8.57883 47.7454 8.46608 48.2728 8.41289 48.7851C8.18572 46.9442 8.05688 45.0647 8.02875 43.1695C8.02213 42.7172 8.07698 42.3577 8.37175 41.964C8.68379 41.5444 8.97526 41.31 9.37712 41.1554C11.0283 40.5232 12.0876 39.1872 12.8258 38.094C14.0184 36.3254 14.7179 34.2675 14.9642 31.8026C14.9904 31.5489 15.0053 31.2922 15.0207 31.0207L15.0245 30.959C15.0318 30.827 15.0396 30.6895 15.0495 30.5438C15.0557 30.4472 15.0063 30.3565 14.9238 30.3127C14.8439 30.2706 14.7415 30.283 14.672 30.3447L14.4761 30.5205C14.4023 30.5864 14.3392 30.6429 14.2737 30.6979C13.9591 30.9627 13.6433 31.2248 13.3267 31.4877L13.2936 31.5149C12.5989 32.0917 11.8803 32.688 11.194 33.3038C9.86243 34.4939 9.00504 35.6786 8.49562 37.0324C8.41147 37.2556 8.33772 37.4764 8.27436 37.6949C8.4838 35.5436 8.82397 33.425 9.29108 31.3695C9.34781 31.1181 9.37949 31.0442 9.49603 31.0041C9.56931 30.9781 9.63762 30.9281 9.6875 30.8661C10.0262 30.4626 10.4723 30.3987 10.9044 30.3895C12.3464 30.3541 13.4901 29.6002 14.4184 28.8674C16.6946 27.0709 18.2618 22.5126 18.2618 22.358C18.2618 22.2775 18.2235 22.2024 18.1585 22.1571C18.0945 22.1128 18.008 22.1066 17.9427 22.137C17.4685 22.3479 16.9943 22.5532 16.5033 22.766C15.423 23.2355 14.3061 23.7205 13.2334 24.2509C12.1538 24.7863 11.3006 25.5022 10.6907 26.3832C11.272 24.6523 11.946 22.9553 12.7005 21.3245C12.7873 21.1486 13.1948 20.9618 13.7792 20.9618C13.9692 20.9618 14.1534 20.9831 14.3125 21.0232C15.6854 21.3681 17.0468 21.159 18.5535 20.37C20.095 19.5623 21.3739 18.2419 22.4632 16.3322C22.484 16.2953 22.5249 16.1825 22.5469 16.1194C22.5745 16.0421 22.5634 15.9569 22.5176 15.8922C22.475 15.8308 22.4069 15.7941 22.3202 15.7941H22.3183L21.7741 15.83C21.4406 15.8521 21.1167 15.8736 20.7929 15.891L20.447 15.9093C19.4145 15.9638 18.3465 16.0198 17.3016 16.2806C16.11 16.5809 15.2351 17.0419 14.5642 17.7257C15.3583 16.3406 16.2086 15.0227 17.1042 13.7882C17.1283 13.7555 17.2439 13.7055 17.3387 13.6889C17.386 13.6772 17.5581 13.6393 17.7869 13.6393C18.0905 13.6393 18.3562 13.704 18.5814 13.8338C20.0128 14.5673 21.6202 14.6218 23.3655 13.9936C24.7971 13.481 26.0095 12.529 27.0723 11.084C27.1068 11.0374 27.138 10.9866 27.1664 10.9331C27.1988 10.8714 27.2009 10.8035 27.1726 10.7416C27.0903 10.5607 26.7343 10.4758 26.5844 10.4475C26.2166 10.3801 25.7998 10.3034 25.3866 10.2446C25.1973 10.2169 25.0077 10.1879 24.8176 10.1584L24.7933 10.1545C24.1494 10.0549 23.4837 9.95182 22.8131 9.91639C21.5876 9.85074 20.4995 10.1128 19.609 10.693C20.2078 10.0251 20.8196 9.39145 21.4408 8.79615C21.6372 8.60837 21.8595 8.4191 22.1623 8.18152C22.1857 8.1627 22.2452 8.14065 22.3183 8.13619C24.4645 8.04824 26.2504 7.05533 27.7775 5.10122C28.6093 4.03746 29.2471 2.69574 29.7277 0.999266L29.7442 0.941049C29.7955 0.762682 29.8239 0.664579 29.7059 0.549631C29.6149 0.460943 29.4547 0.487204 29.0381 0.660121C28.6599 0.812476 28.2793 0.960373 27.8886 1.11223C27.1035 1.41719 26.2915 1.73255 25.5079 2.08879C24.1983 2.68533 23.1525 3.58956 22.4001 4.77595C21.8271 5.67868 21.6006 6.58563 21.7072 7.54386C21.7065 7.55451 21.6975 7.58003 21.6961 7.583C20.3291 8.81993 19.0223 10.2124 17.6806 11.8698C18.5753 10.4361 19.1585 8.7855 19.4511 6.87201C19.7461 4.94292 19.7648 3.22588 19.5086 1.62306C19.4922 1.52272 19.4703 1.42239 19.4421 1.29679L19.4003 1.10331C19.3814 1.02032 19.3218 0.953188 19.2436 0.927424C19.1653 0.903146 19.0776 0.924698 19.0192 0.982915C18.9256 1.07532 18.8339 1.16252 18.7443 1.24725L18.6812 1.30695C18.4519 1.52347 18.2354 1.72785 18.0394 1.95898C16.1353 4.21013 15.0247 6.58786 14.6444 9.22819C14.4711 10.4215 14.5429 11.4375 14.8642 12.3333C14.9706 12.6301 15.1365 12.8951 15.3018 13.1582C15.3774 13.2784 15.4531 13.399 15.5223 13.5229C15.5734 13.6118 15.5776 13.6349 15.5774 13.6306C15.546 13.9837 15.5008 14.3771 15.4398 14.8492C15.4372 14.8552 15.4287 14.8691 15.4015 14.9067L15.3795 14.9387C14.3382 16.4555 13.3775 18.0546 12.5131 19.7097C12.853 18.4736 13.1237 16.9089 13.1045 15.0908C13.0814 12.91 12.6022 10.965 11.6391 9.14396C11.6011 9.07311 11.5321 9.02704 11.4354 9.0201C11.3652 9.0201 11.2976 9.05651 11.2533 9.11869C11.2245 9.16081 11.1952 9.20045 11.1673 9.2381C11.1051 9.32233 11.047 9.4021 10.995 9.48732C10.2281 10.7475 9.81681 12.1371 9.54378 13.207C9.04476 15.1693 8.81546 16.8078 8.82208 18.3638C8.82586 19.6865 9.05587 20.7032 9.54614 21.5635C9.69861 21.8313 9.89056 22.0657 10.0835 22.3015C10.1858 22.4266 10.291 22.5552 10.3863 22.687C10.4529 22.7787 10.4851 22.8721 10.487 22.9241C10.4995 23.2377 10.4929 23.5565 10.4865 23.8647L10.482 24.0778C10.4813 24.1144 10.4733 24.1565 10.4612 24.1888C9.84565 25.7517 9.30455 27.3761 8.84312 29.0443C8.91096 28.4763 8.94926 27.9263 8.95895 27.3897C9.01474 24.3441 8.12331 21.6242 6.30878 19.3047L5.93056 18.8219C5.88682 18.7651 5.82205 18.7329 5.75303 18.7329L5.71521 18.7364C5.63436 18.7505 5.56628 18.8092 5.53815 18.8893C5.50364 18.9856 5.46983 19.0765 5.43697 19.1645C5.37362 19.3344 5.31381 19.4955 5.26323 19.6592C4.87389 20.9373 4.68289 22.3335 4.64412 24.1855L4.64341 24.2217C4.61434 25.5691 4.57439 27.415 5.10248 29.1813C5.6223 30.9201 6.53902 31.7988 6.71679 31.9566L6.7357 31.9745C7.21959 32.4271 7.5347 32.8411 7.59994 33.1098C7.62618 33.2183 7.65289 33.3271 7.6841 33.4346C7.82215 33.913 7.73587 34.3688 7.64273 34.8611C7.5964 35.1095 7.54817 35.3662 7.53139 35.6295C7.46473 36.6834 7.38294 37.7551 7.30375 38.7913L7.29665 38.8872C7.27632 39.1515 7.25599 39.4159 7.2359 39.6802C7.03402 37.3089 6.28467 35.1534 4.9954 33.2471C4.20586 32.0808 3.26455 31.0829 2.19701 30.2805C2.15092 30.2458 2.10246 30.2148 2.03769 30.1745C2.00625 30.1554 1.96984 30.1326 1.92564 30.1036C1.85898 30.0617 1.7734 30.058 1.70461 30.0932C1.63417 30.1291 1.58571 30.2022 1.57767 30.2849C1.56325 30.4348 1.54647 30.58 1.52874 30.7306C1.49305 31.039 1.45924 31.3304 1.45782 31.6296C1.44198 34.7317 2.06818 37.6386 3.31963 40.2686C3.66831 41.0023 4.12903 41.637 4.68951 42.1558C5.24526 42.6674 5.84498 42.9691 6.52177 43.0776C6.53666 43.0803 6.57212 43.1029 6.57756 43.1073C6.6142 43.1844 6.65225 43.2617 6.69031 43.3392C6.82553 43.613 6.96523 43.8961 7.03473 44.18C7.09265 44.4201 7.09265 44.6824 7.09265 44.9604C7.09265 45.0622 7.09265 45.1647 7.09572 45.2653C7.16073 47.6683 7.24607 48.5052 7.61294 50.6523C7.38908 50.0139 7.10801 49.3737 6.74516 48.7579C5.27576 46.2654 3.40899 44.5737 1.03823 43.5864C0.887414 43.5228 0.736125 43.4769 0.560723 43.4234L0.525738 43.4125C0.454584 43.3907 0.379176 43.3675 0.298567 43.3417C0.225759 43.3167 0.142786 43.3338 0.083452 43.3853C0.0243545 43.4366 -0.00661254 43.5151 0.00118833 43.5969C0.0186812 43.7673 0.0307371 43.933 0.0418474 44.0948C0.0661956 44.4495 0.0891254 44.7845 0.171153 45.1159C0.93611 48.2124 2.20222 50.6785 4.04156 52.6557C4.82803 53.5009 5.65682 53.9855 6.57519 54.1374C6.80685 54.1753 7.09005 54.18 7.56945 54.1488L7.7075 54.1401C7.72854 54.1389 7.74698 54.1376 7.76376 54.1376C7.80158 54.1376 7.80466 54.1376 7.8309 54.1782L8.47317 55.1025C8.48144 55.1147 8.4935 55.1585 8.50177 55.1887L8.51123 55.2219C9.17785 57.5903 10.005 59.8714 10.9803 62.0363C10.5413 61.4014 10.0603 60.8217 9.52416 60.2764C7.05861 57.7694 2.8433 57.6968 2.37076 57.6968L2.3119 57.6973L2.27479 57.7045C2.15896 57.7476 2.09631 57.8774 2.13201 57.9995C2.16487 58.1147 2.1956 58.2311 2.23082 58.3679C2.29819 58.6248 2.36816 58.8901 2.46626 59.1468C2.93337 60.3701 3.69053 61.5468 4.84955 62.8514C5.64594 63.7457 6.54375 64.6526 7.71128 65.2261C8.98991 65.8554 10.1444 66.0089 11.2926 65.7008C11.4878 65.647 11.7124 65.5789 11.9055 65.4476C12.0431 65.3552 12.0807 65.3582 12.2159 65.4637C12.3762 65.5885 12.5466 65.6933 12.7121 65.7949C12.8036 65.8511 12.8958 65.9079 12.9818 65.9649C12.9955 65.977 13.0249 66.0273 13.0357 66.0459C14.0659 67.8067 15.2008 69.4433 16.4263 70.9361C15.7634 70.4307 15.0829 70.0651 14.36 69.8215C12.1509 69.0756 9.83548 69.1705 7.54226 70.0998C7.19997 70.2387 6.82482 70.4493 6.79976 70.4642C6.74728 70.5003 6.71112 70.5588 6.69977 70.6259C6.68984 70.6918 6.70615 70.7592 6.74445 70.8107C6.81607 70.9084 6.88534 71.0065 6.95389 71.1038L6.96902 71.1251C7.12385 71.3461 7.29925 71.5961 7.49593 71.8175C8.38168 72.8127 9.47404 73.4798 10.5227 74.0526C11.9646 74.8366 13.4392 75.259 14.9058 75.3086C14.9748 75.3111 15.0439 75.3125 15.1126 75.3125C16.4617 75.3125 17.5148 74.8466 18.3266 73.8935C18.3365 73.8861 18.3718 73.872 18.3911 73.8717C18.7013 73.895 18.9961 73.9423 19.2164 73.9807C19.2511 73.9872 19.2939 74.009 19.3206 74.0342C20.6768 75.2925 22.1131 76.3969 23.6135 77.3368C23.3861 77.2662 23.1518 77.2047 22.9121 77.1554C21.3087 76.8324 19.6724 77.035 17.8756 77.7832C16.6634 78.2895 15.536 79.0335 14.429 80.0574C14.3378 80.1413 14.325 80.2858 14.4002 80.3858C14.7919 80.9083 15.3015 81.2009 15.7485 81.4179C16.8388 81.9488 18.0694 82.2887 19.5121 82.4576C19.5164 82.4579 19.9799 82.5 20.63 82.5C21.0992 82.5 21.5358 82.4779 21.9271 82.4346C22.301 82.3935 22.6741 82.3263 23.036 82.2352C24.6983 81.8111 25.8247 80.939 26.47 79.5852C26.4816 79.5735 26.5312 79.5433 26.5941 79.5272C26.8941 79.4492 27.164 79.3942 27.4208 79.3583C27.4813 79.3481 27.5567 79.3652 27.6517 79.4053C28.7996 79.8688 30.0144 80.255 31.26 80.5528C31.2775 80.5573 31.2957 80.5595 31.3139 80.5595C31.3975 80.5595 31.4746 80.5112 31.5153 80.4324C31.6342 80.2005 31.7791 79.9781 31.9457 79.7712C31.998 79.7061 32.0136 79.6194 31.9878 79.5391C31.9632 79.4613 31.9008 79.4024 31.8209 79.3828Z" fill="white"/>
</svg>
