<svg width="160" height="24" viewBox="0 0 160 24" fill="none" xmlns="http://www.w3.org/2000/svg">
<line x1="4.37114e-08" y1="11.5" x2="60" y2="11.5" stroke="white"/>
<g clip-path="url(#clip0_2791_105788)">
<path d="M78.9463 3.54901C79.1404 3.54901 79.2978 3.39164 79.2978 3.19751C79.2978 3.00338 79.1404 2.84601 78.9463 2.84601C78.7522 2.84601 78.5948 3.00338 78.5948 3.19751C78.5948 3.39164 78.7522 3.54901 78.9463 3.54901Z" fill="white"/>
<path d="M79.6493 4.95502C79.8434 4.95502 80.0008 4.79765 80.0008 4.60352C80.0008 4.40939 79.8434 4.25201 79.6493 4.25201C79.4552 4.25201 79.2978 4.40939 79.2978 4.60352C79.2978 4.79765 79.4552 4.95502 79.6493 4.95502Z" fill="white"/>
<path d="M73.8372 11.4353C73.502 11.0886 73.0527 10.8976 72.5716 10.8976C72.1763 10.8976 71.811 11.0289 71.5171 11.25V5.38397C71.9262 5.52907 72.2201 5.91975 72.2201 6.37802V9.84308C72.2201 10.0372 72.3775 10.1946 72.5716 10.1946C72.7657 10.1946 72.9231 10.0372 72.9231 9.84308V6.37802C72.9231 5.51703 72.3006 4.79921 71.4822 4.64961C71.3223 3.85377 70.6327 3.23779 69.8087 3.2152C69.3298 3.20227 68.8771 3.37863 68.534 3.71227C68.191 4.04606 68.0021 4.4934 68.0021 4.97201V13.8565C68.0021 14.3197 68.1065 14.786 68.3039 15.2051L71.021 20.9704C71.4006 21.7759 71.39 22.6947 70.9917 23.4913C70.9372 23.6003 70.943 23.7297 71.0071 23.8333C71.0711 23.9369 71.1843 24 71.3061 24H79.297C79.4911 24 79.6485 23.8426 79.6485 23.6485V19.4305C79.6485 18.0221 79.1001 16.6981 78.1042 15.7022L73.8372 11.4353ZM78.9455 23.297H71.8287C72.1066 22.4366 72.0501 21.5048 71.6569 20.6707L68.9399 14.9054C68.7863 14.5795 68.7051 14.2168 68.7051 13.8565V4.97201C68.7051 4.6849 68.8184 4.41645 69.0243 4.21614C69.2301 4.01597 69.5011 3.90986 69.7895 3.91793C70.3545 3.93344 70.8141 4.4194 70.8141 5.0013V12.6551C70.8141 13.1246 70.9969 13.5659 71.3288 13.8979L74.2127 16.7818C74.5446 17.1137 74.7274 17.5551 74.7274 18.0245C74.7274 18.2187 74.8848 18.376 75.0789 18.376C75.273 18.376 75.4304 18.2187 75.4304 18.0245C75.4304 17.3673 75.1745 16.7494 74.7098 16.2847L71.8259 13.4008C71.6267 13.2017 71.517 12.9369 71.517 12.6552C71.517 12.0737 71.9901 11.6007 72.5715 11.6007C72.861 11.6007 73.1315 11.716 73.3332 11.9255C73.3348 11.9271 73.3363 11.9287 73.3379 11.9303L77.6071 16.1995C78.4702 17.0626 78.9454 18.21 78.9454 19.4306V23.297H78.9455Z" fill="white"/>
<path d="M91.466 3.71228C91.123 3.37859 90.6697 3.20218 90.1913 3.21521C89.3672 3.2378 88.6776 3.85377 88.5178 4.64962C87.6994 4.79922 87.0769 5.51704 87.0769 6.37803V10.9325C86.731 11.0022 86.4147 11.1747 86.1628 11.4353L81.8958 15.7022C80.8999 16.6981 80.3515 18.0221 80.3515 19.4304V23.6485C80.3515 23.8426 80.5089 24 80.703 24H88.6939C88.8157 24 88.9289 23.9369 88.9929 23.8332C89.057 23.7296 89.0628 23.6002 89.0083 23.4913C88.61 22.6947 88.5994 21.7759 88.979 20.9703L91.6961 15.2051C91.8936 14.7861 91.9979 14.3197 91.9979 13.8564V4.97202C91.9979 4.49346 91.809 4.04612 91.466 3.71228ZM88.4829 5.38398V11.2499C88.2785 11.0962 88.0395 10.986 87.7799 10.9331V6.37807C87.7799 5.91981 88.0738 5.52908 88.4829 5.38398ZM91.2949 13.8565C91.2949 14.2168 91.2138 14.5795 91.0601 14.9054L88.3431 20.6707C87.9499 21.5049 87.8934 22.4367 88.1713 23.297H81.0545V19.4305C81.0545 18.21 81.5298 17.0625 82.3929 16.1994L86.6621 11.9302C86.6636 11.9286 86.6652 11.927 86.6667 11.9254C86.8685 11.716 87.139 11.6006 87.4284 11.6006C88.0099 11.6006 88.4829 12.0736 88.4829 12.6551C88.4829 12.9368 88.3732 13.2016 88.1741 13.4008L85.2902 16.2846C84.8255 16.7494 84.5695 17.3672 84.5695 18.0245C84.5695 18.2186 84.7269 18.376 84.921 18.376C85.1152 18.376 85.2725 18.2186 85.2725 18.0245C85.2725 17.555 85.4554 17.1137 85.7873 16.7817L88.6712 13.8978C89.0031 13.5659 89.1859 13.1245 89.1859 12.6551V5.00122C89.1859 4.41932 89.6456 3.93335 90.2105 3.91784C90.4982 3.90964 90.77 4.01589 90.9757 4.21606C91.1816 4.41632 91.2949 4.68477 91.2949 4.97193V13.8565Z" fill="white"/>
<path d="M85.6977 7.34775C86.3949 6.20129 86.7487 5.06158 86.7488 3.96026C86.7488 1.77659 84.9723 0 82.7886 0C81.7351 0 80.7391 0.414116 80 1.14819C79.2609 0.414116 78.265 0 77.2114 0C75.0277 0 73.2512 1.77659 73.2512 3.9603C73.2513 5.06158 73.605 6.20125 74.3023 7.34771C74.8496 8.2476 75.6097 9.15489 76.5617 10.0444C78.1716 11.5489 79.757 12.4742 79.8237 12.5129C79.8782 12.5445 79.9391 12.5603 80 12.5603C80.0609 12.5603 80.1218 12.5445 80.1763 12.5129C80.243 12.4742 81.8284 11.5488 83.4383 10.0444C84.3903 9.15494 85.1504 8.2476 85.6977 7.34775ZM73.9625 4.21803H76.0632V6.79913C76.0632 7.0808 75.9535 7.34564 75.7543 7.54478L75.4794 7.81966C74.6566 6.74059 74.0366 5.51258 73.9625 4.21803ZM80 11.7973C79.4091 11.4291 77.454 10.1433 75.9251 8.36823L76.2514 8.04195C76.5834 7.70999 76.7661 7.26864 76.7661 6.79918V3.86652C76.7661 3.6724 76.6088 3.51502 76.4146 3.51502H73.9854C74.2033 1.92895 75.5665 0.703004 77.2114 0.703004C78.1892 0.703004 79.1066 1.13671 79.7285 1.89296C79.7953 1.97413 79.8949 2.02118 80 2.02118C80.1051 2.02118 80.2047 1.97413 80.2715 1.89296C80.8934 1.13671 81.8108 0.703004 82.7886 0.703004C83.5502 0.703004 84.2509 0.966443 84.8063 1.40601H84.2649C83.2958 1.40601 82.5074 2.1944 82.5074 3.16352V3.51502H81.7575C81.4706 3.51502 81.1925 3.63411 80.9944 3.84168C80.7935 4.05226 80.6904 4.32868 80.7042 4.62C80.7307 5.18302 81.2021 5.62403 81.7774 5.62403H83.2815C83.3785 5.62403 83.4689 5.66275 83.5359 5.73295C83.6028 5.80316 83.6372 5.89549 83.6326 5.99297C83.6239 6.17716 83.4575 6.32699 83.2617 6.32699L81.2648 6.32662C80.7391 6.32662 80.245 6.53124 79.8734 6.9028C79.5017 7.27445 79.297 7.76857 79.297 8.29418C79.297 8.85298 79.5354 9.38665 79.9514 9.75943L80.7281 10.5009C80.894 10.6593 81.0031 10.8689 81.0402 11.0952C80.5782 11.4288 80.2061 11.6689 80 11.7973ZM81.6434 10.6433C81.551 10.3989 81.405 10.1752 81.2136 9.99241L80.4327 9.24699C80.4297 9.24418 80.4268 9.24141 80.4237 9.23874C80.1545 8.99902 80 8.65478 80 8.29428C80 7.95646 80.1316 7.63884 80.3705 7.40001C80.6094 7.16118 80.9269 7.02967 81.2646 7.02967L83.2617 7.03004C83.8369 7.03004 84.3083 6.58902 84.3348 6.02606C84.3485 5.73469 84.2454 5.45827 84.0445 5.24774C83.8465 5.04012 83.5684 4.92108 83.2815 4.92108H81.7774C81.5815 4.92108 81.4151 4.77124 81.4064 4.58701C81.4018 4.48953 81.4362 4.3972 81.5031 4.32704C81.5701 4.25678 81.6605 4.21807 81.7575 4.21807H82.8589C83.053 4.21807 83.2104 4.06069 83.2104 3.86657V3.16357C83.2104 2.58209 83.6834 2.10906 84.2649 2.10906H85.4665C85.8313 2.63514 86.0458 3.27295 86.0458 3.96026C86.0453 6.72573 83.4796 9.21549 81.6434 10.6433Z" fill="white"/>
</g>
<line x1="100" y1="11.5" x2="160" y2="11.5" stroke="white"/>
<defs>
<clipPath id="clip0_2791_105788">
<rect width="24" height="24" fill="white" transform="translate(68)"/>
</clipPath>
</defs>
</svg>
