<svg width="160" height="24" viewBox="0 0 160 24" fill="none" xmlns="http://www.w3.org/2000/svg">
<line x1="4.37114e-08" y1="11.5" x2="60" y2="11.5" stroke="white"/>
<g clip-path="url(#clip0_2791_105804)">
<path d="M84.2311 11.56H82.4642C82.1912 11.5606 81.9412 11.7098 81.8118 11.9496C81.6823 12.1893 81.6947 12.4802 81.844 12.7088C81.8991 12.7931 81.9282 12.8913 81.9282 12.9926C81.9282 13.2795 81.6948 13.5129 81.4078 13.5129C81.121 13.5129 80.8876 13.2796 80.8876 12.9926C80.8876 12.8912 80.9167 12.793 80.9717 12.7088C81.1211 12.4802 81.1334 12.1893 81.004 11.9496C80.8745 11.7098 80.6245 11.5606 80.3508 11.56H78.9362V10.2756C78.9357 10.0026 78.7864 9.75259 78.5466 9.62317C78.3068 9.49365 78.0159 9.50607 77.7874 9.65537C77.7031 9.7104 77.605 9.73951 77.5035 9.73951C77.2167 9.73951 76.9832 9.50612 76.9832 9.2192C76.9832 8.93227 77.2166 8.69893 77.5035 8.69893C77.605 8.69893 77.7031 8.72804 77.7874 8.78307C78.016 8.93237 78.307 8.94474 78.5466 8.81528C78.7864 8.68585 78.9357 8.43587 78.9362 8.16217V6.52688C78.9362 6.4329 78.8986 6.34281 78.8317 6.27676C78.7649 6.21071 78.6736 6.17373 78.5804 6.17532C76.9788 6.19501 75.4753 6.79782 74.347 7.87267C73.2119 8.95407 72.5867 10.3884 72.5867 11.9116C72.5867 14.167 73.5513 15.4443 74.4023 16.5713C74.7195 16.9914 75.0225 17.3932 75.2533 17.8183C74.8922 18.0205 74.6475 18.4067 74.6475 18.8491C74.6475 19.1719 74.7777 19.4649 74.9884 19.6783C74.7777 19.8917 74.6475 20.1846 74.6475 20.5074C74.6475 21.1585 75.1772 21.6881 75.8282 21.6881H75.8751C75.9933 22.2377 76.2837 22.7393 76.7133 23.1242C77.2253 23.5832 77.8902 23.8359 78.5855 23.8359C79.9162 23.8359 81.0323 22.9314 81.2967 21.6881H81.3411C81.9922 21.6881 82.5218 21.1584 82.5218 20.5074C82.5218 20.1846 82.3916 19.8916 82.1809 19.6783C82.3916 19.4649 82.5218 19.1719 82.5218 18.8491C82.5218 18.4067 82.277 18.0205 81.916 17.8183C82.1467 17.3932 82.4498 16.9914 82.767 16.5713C83.618 15.4443 84.5825 14.167 84.5825 11.9116C84.5827 11.7174 84.4253 11.56 84.2311 11.56ZM78.5855 23.1328C77.6596 23.1328 76.8535 22.5231 76.6007 21.6882H80.572C80.3225 22.533 79.5259 23.1328 78.5855 23.1328ZM81.3411 20.9851H75.8282C75.5649 20.9851 75.3506 20.7708 75.3506 20.5075C75.3506 20.2442 75.5649 20.0299 75.8282 20.0299H81.3411C81.6045 20.0299 81.8187 20.2442 81.8187 20.5075C81.8188 20.7708 81.6045 20.9851 81.3411 20.9851ZM81.3411 19.3268H75.8283H75.8282C75.5649 19.3268 75.3506 19.1125 75.3506 18.8492C75.3506 18.5858 75.5649 18.3715 75.8282 18.3715H81.3411C81.6045 18.3715 81.8187 18.5858 81.8187 18.8492C81.8187 19.1125 81.6045 19.3268 81.3411 19.3268ZM82.206 16.1476C81.8277 16.6485 81.4681 17.1251 81.202 17.6684H75.9674C75.7013 17.1251 75.3417 16.6485 74.9634 16.1476C74.1406 15.058 73.2898 13.9314 73.2898 11.9116C73.2898 9.2844 75.4766 7.10007 78.2331 6.89392V8.16151C78.2331 8.16873 78.2331 8.1856 78.2126 8.19667C78.1923 8.20759 78.178 8.19845 78.172 8.19446C77.973 8.06453 77.7419 7.99585 77.5036 7.99585C76.8289 7.99585 76.2801 8.54467 76.2801 9.21924C76.2801 9.89387 76.8289 10.4427 77.5036 10.4427C77.7419 10.4427 77.973 10.374 78.172 10.2441C78.178 10.2401 78.1921 10.2308 78.2126 10.2419C78.2331 10.2529 78.2331 10.2699 78.2331 10.2763V11.9116C78.2331 12.1058 78.3905 12.2632 78.5847 12.2632H80.3502C80.3573 12.2632 80.3742 12.2632 80.3853 12.2837C80.3963 12.3041 80.387 12.3182 80.3831 12.3243C80.2532 12.5233 80.1845 12.7544 80.1845 12.9927C80.1845 13.6673 80.7333 14.2161 81.4079 14.2161C82.0825 14.2161 82.6314 13.6673 82.6314 12.9927C82.6314 12.7544 82.5627 12.5233 82.4328 12.3243C82.4288 12.3182 82.4195 12.3041 82.4306 12.2837C82.4416 12.2632 82.4585 12.2632 82.465 12.2632H83.8707C83.7783 14.0654 82.9797 15.1229 82.206 16.1476ZM78.2507 4.16954V2.47238C78.2507 2.27823 78.408 2.12082 78.6022 2.12082C78.7964 2.12082 78.9538 2.27823 78.9538 2.47238V4.16954C78.9538 4.3637 78.7964 4.5211 78.6022 4.5211C78.408 4.5211 78.2507 4.3637 78.2507 4.16954ZM73.4472 3.94787C73.3502 3.77973 73.4078 3.56471 73.5759 3.46763C73.744 3.37051 73.9591 3.42812 74.0562 3.59631L74.9047 5.06607C75.0018 5.23421 74.9442 5.44923 74.7761 5.54631C74.7207 5.57828 74.6602 5.59346 74.6006 5.59346C74.4791 5.59346 74.3609 5.53042 74.2958 5.41763L73.4472 3.94787ZM71.9751 8.34727C71.91 8.46006 71.7919 8.5231 71.6704 8.5231C71.6107 8.5231 71.5503 8.50792 71.4949 8.47595L70.0251 7.62737C69.857 7.53029 69.7994 7.31528 69.8965 7.14713C69.9934 6.97895 70.2084 6.92138 70.3767 7.01846L71.8465 7.86704C72.0146 7.96412 72.0722 8.17913 71.9751 8.34727ZM70.5983 12.5251H68.9012C68.707 12.5251 68.5497 12.3677 68.5497 12.1735C68.5497 11.9793 68.707 11.8219 68.9012 11.8219H70.5983C70.7925 11.8219 70.9499 11.9793 70.9499 12.1735C70.9499 12.3677 70.7925 12.5251 70.5983 12.5251ZM71.9751 15.9997C72.0722 16.1678 72.0146 16.3828 71.8465 16.4799L70.3767 17.3285C70.3213 17.3604 70.2609 17.3756 70.2012 17.3756C70.0797 17.3756 69.9616 17.3126 69.8965 17.1998C69.7994 17.0317 69.857 16.8167 70.0251 16.7196L71.4949 15.871C71.663 15.7739 71.8781 15.8315 71.9751 15.9997ZM88.6549 12.1734C88.6549 12.3676 88.4975 12.525 88.3033 12.525H86.6062C86.412 12.525 86.2546 12.3676 86.2546 12.1734C86.2546 11.9793 86.412 11.8219 86.6062 11.8219H88.3033C88.4974 11.8219 88.6549 11.9793 88.6549 12.1734ZM87.308 17.1998C87.2429 17.3125 87.1248 17.3756 87.0033 17.3756C86.9436 17.3756 86.8832 17.3604 86.8278 17.3284L85.3581 16.4799C85.1899 16.3828 85.1323 16.1678 85.2294 15.9996C85.3264 15.8314 85.5415 15.7738 85.7097 15.8709L87.1794 16.7195C87.3475 16.8166 87.4052 17.0316 87.308 17.1998ZM91.3639 4.06473L89.2985 0.487462C89.1201 0.178369 88.7234 0.072056 88.4144 0.250556L87.9452 0.521447C87.717 0.653165 87.5998 0.903806 87.6257 1.15037C86.4999 1.69088 85.5896 1.82331 84.5914 1.84749C84.1095 1.85917 83.7043 2.16381 83.5594 2.62351L83.3255 3.36488C82.7359 3.1794 82.1156 3.07876 81.486 3.07102C81.3919 3.06943 81.3014 3.10642 81.2346 3.17246C81.1677 3.23851 81.1302 3.3286 81.1302 3.42259V5.05703C81.1302 5.06424 81.1302 5.08121 81.1097 5.09228C81.0892 5.10334 81.0751 5.09406 81.069 5.09012C80.8701 4.96018 80.6389 4.89146 80.4006 4.89146C79.726 4.89146 79.1772 5.44028 79.1772 6.1149C79.1772 6.78948 79.726 7.33829 80.4006 7.33829C80.639 7.33829 80.8702 7.26962 81.069 7.13968C81.0751 7.13574 81.0893 7.12651 81.1097 7.13753C81.1302 7.14859 81.1302 7.16556 81.1302 7.17277V8.80721C81.1302 9.00137 81.2875 9.15877 81.4817 9.15877H83.247C83.2542 9.15877 83.2712 9.15878 83.2823 9.17926C83.2933 9.1997 83.2841 9.2139 83.2801 9.21995C83.1502 9.41884 83.0815 9.64993 83.0815 9.88829C83.0815 10.5629 83.6303 11.1117 84.3049 11.1117C84.9796 11.1117 85.5284 10.5629 85.5284 9.88829C85.5284 9.64998 85.4597 9.41884 85.3298 9.21995C85.3258 9.2139 85.3166 9.1997 85.3276 9.17926C85.3386 9.15878 85.3557 9.15877 85.3629 9.15877H87.1281C87.3223 9.15877 87.4797 9.00137 87.4797 8.80721C87.4797 8.29351 87.4063 7.78417 87.2645 7.29315L89.114 6.22534C89.5183 5.9919 89.8586 5.65899 90.1041 5.26365C90.1777 5.29159 90.2561 5.3064 90.3353 5.3064C90.4451 5.3064 90.5562 5.27851 90.6579 5.21982L91.127 4.94893C91.2765 4.86268 91.3835 4.72304 91.4283 4.55584C91.4731 4.38863 91.4502 4.21417 91.3639 4.06473ZM85.3628 8.4556C85.0894 8.4556 84.8389 8.60462 84.7092 8.84453C84.5793 9.08443 84.5915 9.37562 84.741 9.60446C84.7961 9.68874 84.8252 9.7869 84.8252 9.88824C84.8252 10.1752 84.5918 10.4086 84.3049 10.4086C84.018 10.4086 83.7846 10.1752 83.7846 9.88824C83.7846 9.78681 83.8137 9.6887 83.8687 9.60446C84.0182 9.37562 84.0304 9.08438 83.9007 8.84453C83.7708 8.60462 83.5204 8.4556 83.247 8.4556H81.8333V7.17273C81.8333 6.8994 81.6843 6.64895 81.4444 6.5191C81.2046 6.38935 80.9134 6.40145 80.6844 6.55103C80.6002 6.60606 80.502 6.63517 80.4006 6.63517C80.1137 6.63517 79.8803 6.40178 79.8803 6.1149C79.8803 5.82798 80.1137 5.59459 80.4006 5.59459C80.502 5.59459 80.6002 5.6237 80.6845 5.67873C80.9132 5.82821 81.2044 5.84049 81.4444 5.71065C81.6842 5.58081 81.8333 5.33035 81.8333 5.05698V3.78957C82.8739 3.86743 83.8698 4.22978 84.6949 4.82931L84.3766 5.38065C84.2134 5.66345 84.1702 5.99378 84.2551 6.31079C84.3401 6.62781 84.5426 6.89227 84.8254 7.05559C85.018 7.16677 85.2285 7.2196 85.4364 7.2196C85.7752 7.2196 86.1067 7.07884 86.3421 6.82196C86.5785 7.33876 86.7213 7.8917 86.7634 8.45565L85.3628 8.4556ZM88.7624 5.61638L87.0224 6.62096C86.9492 6.45296 86.8672 6.28824 86.7772 6.12727L87.8412 4.2842C87.9383 4.11606 87.8807 3.90104 87.7126 3.80396C87.5443 3.70684 87.3294 3.76449 87.2323 3.93263L85.8915 6.2552C85.7472 6.50495 85.4267 6.59082 85.1771 6.44659C85.0569 6.37726 84.9708 6.26438 84.9344 6.12878C84.8981 5.99317 84.9162 5.85231 84.9856 5.73217L85.892 4.16213C85.9891 3.99399 85.9315 3.77898 85.7634 3.6819C85.5951 3.58477 85.3801 3.64243 85.2831 3.81057L85.0487 4.21665C84.7156 3.98082 84.3586 3.77912 83.9844 3.61351L84.23 2.83496C84.284 2.66377 84.429 2.55474 84.6085 2.55043C85.6984 2.52404 86.6932 2.37882 87.9277 1.78552L89.6122 4.70312C89.4259 5.08759 89.1348 5.40132 88.7624 5.61638ZM90.3546 4.58293L88.3451 1.10246L88.7175 0.887447L90.727 4.36792L90.3546 4.58293Z" fill="white"/>
</g>
<line x1="100" y1="11.5" x2="160" y2="11.5" stroke="white"/>
<defs>
<clipPath id="clip0_2791_105804">
<rect width="24" height="24" fill="white" transform="translate(68)"/>
</clipPath>
</defs>
</svg>
