<svg width="141" height="196" viewBox="0 0 141 196" fill="none" xmlns="http://www.w3.org/2000/svg">
<path d="M141 98L121 109.547V86.453L141 98ZM123 98V100H1V98V96H123V98Z" fill="url(#paint0_linear_2792_96370)"/>
<path d="M139.811 0.575195L128.264 20.5752L116.717 0.575195L139.811 0.575195ZM124.222 9.5752L125.222 11.3072L2.24648 82.3072L1.24648 80.5752L0.246485 78.8431L123.222 7.84314L124.222 9.5752Z" fill="url(#paint1_linear_2792_96370)"/>
<path d="M139.811 195.693L116.717 195.693L128.264 175.693L139.811 195.693ZM124.222 186.693L123.222 188.425L0.246485 117.425L1.24648 115.693L2.24648 113.961L125.222 184.961L124.222 186.693Z" fill="url(#paint2_linear_2792_96370)"/>
<defs>
<linearGradient id="paint0_linear_2792_96370" x1="141" y1="99.5" x2="1" y2="99.5" gradientUnits="userSpaceOnUse">
<stop stop-color="#E6696E"/>
<stop offset="1" stop-color="#B4688B"/>
</linearGradient>
<linearGradient id="paint1_linear_2792_96370" x1="140.561" y1="1.87344" x2="1.99648" y2="81.8734" gradientUnits="userSpaceOnUse">
<stop stop-color="#E6696E"/>
<stop offset="1" stop-color="#B4688B"/>
</linearGradient>
<linearGradient id="paint2_linear_2792_96370" x1="139.061" y1="196.992" x2="0.496485" y2="116.992" gradientUnits="userSpaceOnUse">
<stop stop-color="#E6696E"/>
<stop offset="1" stop-color="#B4688B"/>
</linearGradient>
</defs>
</svg>
