<svg width="34" height="83" viewBox="0 0 34 83" fill="none" xmlns="http://www.w3.org/2000/svg">
<path d="M33.9112 43.3838C33.8479 43.3322 33.756 43.3159 33.6844 43.3397C33.597 43.3662 33.5169 43.3892 33.4413 43.411L33.4044 43.4217C33.218 43.4754 33.057 43.5215 32.8975 43.5847C30.3778 44.5721 28.3942 46.2639 26.8329 48.7562C26.4474 49.3721 26.1488 50.0122 25.9109 50.6506C26.301 48.5033 26.3914 47.6667 26.4605 45.264C26.4637 45.1632 26.4637 45.0606 26.4637 44.9588C26.4637 44.6809 26.4637 44.4183 26.5253 44.1787C26.5991 43.8948 26.7475 43.6117 26.8912 43.3377C26.9316 43.2602 26.9721 43.1826 27.0055 43.1145C27.017 43.1011 27.0544 43.0786 27.069 43.0763C27.7896 42.9678 28.4268 42.6661 29.0175 42.1541C29.6128 41.6356 30.1023 41.0009 30.4728 40.2671C31.8024 37.6372 32.4678 34.7304 32.4509 31.6283C32.4494 31.3291 32.4138 31.0378 32.3746 30.7209C32.3568 30.579 32.3387 30.4338 32.3236 30.2834C32.3151 30.2009 32.2636 30.1276 32.189 30.0919C32.1154 30.0568 32.0265 30.0592 31.9521 30.1036C31.9072 30.1313 31.8688 30.1539 31.8338 30.1739C31.7663 30.2136 31.7148 30.2445 31.6661 30.2792C30.5318 31.0811 29.5314 32.0795 28.6923 33.2458C27.3229 35.152 26.5265 37.3075 26.312 39.6788C26.2907 39.4144 26.2691 39.1501 26.2475 38.8858L26.2399 38.7899C26.1558 37.7537 26.0689 36.682 25.9981 35.6282C25.9802 35.3614 25.9282 35.1017 25.878 34.8505C25.7811 34.3677 25.6894 33.9117 25.8361 33.4338C25.8695 33.3258 25.8976 33.217 25.9257 33.1085C25.995 32.8397 26.3298 32.4258 26.844 31.9732L26.8633 31.9561C27.0529 31.7975 28.027 30.9186 28.5795 29.18C29.1404 27.4138 29.0979 25.5682 29.067 24.2205L29.0663 24.1846C29.0251 22.3321 28.8221 20.9362 28.4082 19.6576C28.3547 19.4941 28.2912 19.3329 28.2239 19.1634C28.189 19.0752 28.1533 18.9841 28.1166 18.8887C28.0865 18.8079 28.0141 18.7492 27.9295 18.7353L27.8881 18.7316C27.8147 18.7316 27.7462 18.7641 27.6997 18.8201L27.2976 19.3034C25.3696 21.6226 24.4225 24.3427 24.4818 27.3882C24.4921 27.9246 24.5328 28.4748 24.6049 29.0428C24.1148 27.3749 23.5402 25.7512 22.8866 24.1893C22.8731 24.1551 22.8643 24.1128 22.8633 24.0769L22.8588 23.8633C22.852 23.5551 22.845 23.2363 22.8583 22.9227C22.8603 22.8707 22.8944 22.7773 22.9655 22.6854C23.0665 22.5538 23.1785 22.4253 23.2945 22.2915C23.4922 22.0646 23.6964 21.8302 23.8581 21.5627C24.3791 20.7021 24.6237 19.6854 24.6277 18.3628C24.6347 16.8058 24.3914 15.1673 23.8609 13.2061C23.5711 12.1361 23.1335 10.7461 22.3188 9.48593C22.2635 9.40121 22.2017 9.32144 22.1359 9.23697C22.1063 9.19956 22.0751 9.15968 22.0435 9.11682C21.9973 9.05563 21.9335 9.01996 21.8305 9.01996C21.7484 9.0259 21.675 9.07198 21.6341 9.14357C20.6114 10.9641 20.102 12.909 20.0779 15.0895C20.0573 16.9076 20.3451 18.472 20.706 19.7084C19.7875 18.0534 18.7668 16.4543 17.6604 14.9374L17.6351 14.903C17.61 14.8701 17.5994 14.8539 17.6012 14.8653C17.5316 14.3746 17.4834 13.9819 17.45 13.6401C17.4507 13.6349 17.4572 13.6061 17.509 13.5209C17.5821 13.3981 17.6622 13.2777 17.7473 13.1503C17.9181 12.8942 18.0944 12.6291 18.2075 12.3323C18.5485 11.4365 18.6252 10.4206 18.4411 9.22755C18.0369 6.58702 16.8567 4.20933 14.8338 1.95823C14.6256 1.7271 14.3956 1.52272 14.1522 1.3067L14.0849 1.24651C13.9897 1.16154 13.892 1.07458 13.7933 0.982676C13.7305 0.923717 13.6406 0.901669 13.5534 0.926937C13.471 0.952701 13.4075 1.02008 13.3879 1.10381L13.3437 1.29506C13.3135 1.4219 13.2902 1.52198 13.2729 1.62256C13.0006 3.22536 13.0204 4.94211 13.3339 6.87141C13.6448 8.78486 14.2645 10.4352 15.2151 11.8688C13.7895 10.212 12.4028 8.82079 10.9536 7.58784C10.9471 7.57942 10.9375 7.5539 10.9368 7.54746C11.0501 6.58504 10.8095 5.67836 10.2006 4.77564C9.40118 3.58927 8.29028 2.68506 6.89884 2.08853C6.06623 1.7323 5.20348 1.41694 4.35882 1.10803C3.9542 0.959885 3.54957 0.812239 3.13289 0.653941C2.7142 0.489698 2.53512 0.460466 2.43792 0.549152C2.31284 0.664098 2.34298 0.762199 2.39749 0.940563L2.41506 0.998778C2.92568 2.69522 3.60332 4.03691 4.48716 5.10041C6.10968 7.05473 8.00722 8.04763 10.2853 8.13532C10.3651 8.14003 10.4284 8.16183 10.4543 8.18165C10.775 8.41847 11.0111 8.60799 11.2198 8.79576C11.8799 9.39081 12.5299 10.0247 13.1659 10.6924C12.22 10.1127 11.0639 9.85108 9.76185 9.91599C9.04929 9.95141 8.34202 10.0545 7.6581 10.1541L7.63198 10.158C7.42979 10.1873 7.22861 10.2162 7.02793 10.2442C6.58839 10.3029 6.14534 10.3797 5.75403 10.4471C5.59555 10.4751 5.21705 10.5601 5.12989 10.7412C5.09975 10.8031 5.10227 10.871 5.13642 10.9327C5.16656 10.9864 5.19972 11.037 5.23588 11.083C6.36537 12.5285 7.65383 13.4805 9.17488 13.9931C11.0295 14.6213 12.7329 14.5696 14.2634 13.8306C14.4975 13.7035 14.7798 13.6391 15.1023 13.6391C15.3457 13.6391 15.5283 13.677 15.5888 13.6906C15.6795 13.7055 15.8026 13.7555 15.8277 13.7877C16.7796 15.0222 17.683 16.3406 18.5267 17.7256C17.8139 17.0419 16.8843 16.5809 15.618 16.2806C14.5081 16.0198 13.3733 15.9638 12.2762 15.9093L11.9088 15.8909C11.5647 15.8736 11.2206 15.852 10.8662 15.83L10.272 15.7938C10.1951 15.7938 10.122 15.8305 10.0773 15.8914C10.0278 15.9571 10.016 16.0423 10.0452 16.1188C10.069 16.1828 10.1125 16.2955 10.1348 16.3331C11.2919 18.2421 12.6507 19.5625 14.2883 20.3701C15.8892 21.1589 17.3357 21.3675 18.7947 21.0234C18.9635 20.9832 19.1591 20.9619 19.3613 20.9619C19.9819 20.9619 20.4147 21.1487 20.5056 21.3216C21.3083 22.9549 22.0247 24.6521 22.6425 26.3832C21.9945 25.502 21.0883 24.7863 19.941 24.251C18.8012 23.7204 17.6145 23.2353 16.4468 22.758C15.945 22.5533 15.4412 22.348 14.9396 22.1379C14.865 22.1057 14.7768 22.1124 14.7073 22.1577C14.6389 22.2025 14.5983 22.2774 14.5983 22.3579C14.5983 22.5125 16.2635 27.0709 18.6819 28.8672C19.6685 29.5999 20.8836 30.3538 22.416 30.3892C22.8746 30.3984 23.3488 30.4623 23.7069 30.8639C23.7617 30.9278 23.8343 30.9776 23.9134 31.0041C24.0357 31.0437 24.0694 31.1175 24.1296 31.3692C24.6259 33.4244 24.9874 35.5427 25.2099 37.6937C25.1426 37.4755 25.0645 37.255 24.9748 37.0318C24.4336 35.6779 23.5226 34.4933 22.108 33.3035C21.3789 32.6876 20.6154 32.0913 19.877 31.5144L19.8418 31.4871C19.5055 31.2243 19.1699 30.9625 18.8354 30.6974C18.7663 30.6426 18.699 30.5862 18.6209 30.5203L18.4122 30.3439C18.3391 30.2829 18.2303 30.2703 18.1449 30.3124C18.0573 30.3563 18.0048 30.4469 18.0116 30.5438C18.0219 30.6892 18.0301 30.8267 18.0379 30.9587L18.042 31.0204C18.0585 31.2922 18.0741 31.5486 18.102 31.8018C18.3637 34.2669 19.1069 36.325 20.374 38.0935C21.1584 39.1868 22.2836 40.523 24.0382 41.155C24.4652 41.3095 24.7749 41.5436 25.1067 41.9638C25.4196 42.3572 25.4779 42.7166 25.4709 43.169C25.441 45.0639 25.3041 46.9436 25.0627 48.7845C25.0062 48.2722 24.8867 47.7448 24.7031 47.1968C24.323 46.0622 23.7308 44.9591 22.8922 43.8245C22.1683 42.842 21.4151 41.856 20.6867 40.902L20.6382 40.8384C20.3494 40.4606 20.0608 40.0823 19.7797 39.7122C19.727 39.6361 19.6509 39.6089 19.607 39.5938C19.5447 39.5638 19.4703 39.5608 19.4043 39.5886C19.3395 39.6158 19.2897 39.6696 19.2679 39.7355L19.2593 39.7612C19.2473 39.7959 19.2377 39.8266 19.2327 39.8574C18.7304 42.8118 19.0386 45.4587 20.1746 47.9504C20.7294 49.1687 21.4736 50.5481 22.7857 51.5405C23.3847 51.9936 23.8576 52.6292 24.1173 53.33C24.1724 53.4809 24.1703 53.5463 24.1641 53.5716C23.6087 55.8403 22.8834 58.0285 22.0015 60.0995C22.2286 59.008 22.213 57.8615 21.9538 56.6736C21.5859 54.9901 20.9534 53.3585 20.3893 51.9613L20.2203 51.5429C19.9558 50.8882 19.6896 50.2282 19.4146 49.5443C19.3797 49.4568 19.2955 49.3971 19.1832 49.3917C19.0948 49.3917 19.0135 49.4415 18.9713 49.5222L18.8826 49.6867C18.8437 49.7588 18.8073 49.8259 18.7761 49.8953C17.6413 52.4206 17.2581 55.0094 17.6376 57.5897C17.9088 59.4348 18.3685 60.7559 19.128 61.8737C19.5211 62.4514 19.8945 63.095 19.9623 63.8865C19.9784 64.0738 19.9709 64.2028 19.8862 64.3497C18.9283 66.0043 17.8543 67.5657 16.6781 69.0164C16.6827 69.0085 16.6869 69.0006 16.6914 68.9926C17.5376 67.4674 17.5632 65.8183 17.4768 64.406C17.4022 63.1953 17.2616 61.9864 17.1262 60.8176L17.1184 60.75C17.0639 60.2818 17.0097 59.8138 16.9602 59.3449C16.9316 59.0791 16.8997 58.8133 16.8668 58.5435L16.8233 58.1783C16.8138 58.0976 16.7638 58.0277 16.692 57.9925C16.5583 57.9237 16.3421 58.0299 16.1085 58.3024C14.5033 60.175 13.5072 62.2911 13.1475 64.5923C12.7746 66.9781 12.9767 69.0199 13.7664 70.8343C13.7875 70.8826 13.787 70.9812 13.7867 71.0141L13.7443 72.058C13.738 72.1331 13.6978 72.2178 13.6647 72.2493C12.0617 73.7718 10.2971 75.0954 8.4033 76.1971C9.29971 75.3979 9.94419 74.3552 10.3619 73.0338C10.8248 71.5693 11.0624 70.045 11.2927 68.567L11.3128 68.4355C11.3944 67.9163 11.4796 67.398 11.5665 66.8684L11.6647 66.2696C11.6787 66.1824 11.6438 66.0952 11.5752 66.0429C11.5072 65.9894 11.4087 65.9766 11.3304 66.0098L11.2447 66.0447C11.1533 66.0816 11.0737 66.1145 10.9986 66.1524C7.41849 67.916 5.06183 72.0293 5.39487 75.9325C5.44711 76.5439 5.39034 77.1181 5.22106 77.6869C5.20524 77.7387 5.1545 77.7949 5.13391 77.8043C3.43353 78.5116 1.8168 79.0276 0.19001 79.3819C0.106373 79.4009 0.0400615 79.4599 0.0129358 79.5394C-0.014441 79.6194 0.00213987 79.7064 0.0578982 79.7718C0.234717 79.9784 0.388676 80.2006 0.515263 80.4332C0.567254 80.5283 0.691077 80.5771 0.783757 80.5534C2.10915 80.2551 3.39987 79.8689 4.62128 79.4046C4.71999 79.3655 4.79534 79.3469 4.86591 79.3583C5.13767 79.394 5.42476 79.449 5.74348 79.527C5.80929 79.5429 5.86379 79.5729 5.8648 79.5701C6.56102 80.9391 7.75756 81.8111 9.524 82.2354C9.90828 82.3263 10.3046 82.3935 10.702 82.4346C11.1179 82.478 11.5818 82.5 12.0803 82.5C12.771 82.5 13.2636 82.4579 13.2696 82.4574C14.8007 82.2884 16.1082 81.9486 17.2664 81.4182C17.7416 81.2009 18.2831 80.9083 18.6993 80.3859C18.7789 80.2858 18.7656 80.1414 18.6689 80.0574C17.4924 79.0335 16.2946 78.2896 15.0064 77.7833C13.0978 77.0351 11.3592 76.8325 9.6551 77.1558C9.40042 77.2046 9.15177 77.266 8.91015 77.3366C10.5043 76.3967 12.0306 75.2921 13.472 74.0337C13.4997 74.0089 13.5451 73.9871 13.5805 73.9809C13.8164 73.9422 14.1296 73.8947 14.4501 73.8719C14.4797 73.8719 14.5174 73.886 14.5216 73.8875C15.3902 74.8462 16.5091 75.3122 17.9425 75.3122C18.0156 75.3122 18.0889 75.3107 18.162 75.3082C19.7205 75.2587 21.2872 74.8363 22.8196 74.0522C23.9332 73.4792 25.0941 72.8121 26.0355 71.8172C26.2442 71.596 26.4306 71.3458 26.5951 71.1251L26.6111 71.1035C26.684 71.0062 26.7576 70.9081 26.8332 70.8112C26.8744 70.7589 26.8917 70.6916 26.8809 70.6237C26.8693 70.5583 26.8309 70.5001 26.7654 70.458C26.7488 70.449 26.3502 70.2382 25.9863 70.0992C23.5495 69.1705 21.0893 69.0754 18.7425 69.8213C17.9741 70.0648 17.251 70.4305 16.547 70.9358C17.8491 69.443 19.0546 67.8065 20.1492 66.0457C20.161 66.0271 20.1922 65.9768 20.2022 65.9676C20.2979 65.9074 20.3959 65.8505 20.4936 65.7942C20.6686 65.6929 20.85 65.5881 21.0203 65.4633C21.1639 65.3575 21.2043 65.3548 21.3495 65.4469C21.555 65.5785 21.7938 65.6468 22.002 65.7006C23.2202 66.0083 24.4481 65.8549 25.8064 65.2259C27.0472 64.6522 28.0011 63.7453 28.8475 62.851C30.0787 61.5464 30.8832 60.3695 31.3795 59.1467C31.4837 58.8901 31.5581 58.6247 31.6354 58.3473C31.6673 58.2308 31.7 58.1144 31.7346 58C31.7726 57.8771 31.7063 57.747 31.5832 57.7042L31.4812 57.6965C30.9791 57.6965 26.5004 57.7691 23.8807 60.2761C23.3109 60.8216 22.8 61.4013 22.3336 62.0359C23.3699 59.8713 24.2487 57.59 24.957 55.2219L24.9673 55.1873C24.9758 55.1583 24.9886 55.1144 24.9972 55.1025L25.6823 54.1745C25.708 54.1374 25.711 54.1374 25.7512 54.1374C25.769 54.1374 25.7886 54.1386 25.8109 54.1399L25.9574 54.1485C26.4672 54.1798 26.7674 54.1753 27.0143 54.1371C27.9898 53.9853 28.8704 53.5007 29.706 52.6555C31.6603 50.6786 33.0055 48.2122 33.8183 45.1161C33.9054 44.7844 33.9298 44.4495 33.9559 44.0943C33.9675 43.9332 33.9803 43.7673 33.9989 43.5958C34.0066 43.5136 33.974 43.4351 33.9112 43.3838Z" fill="white"/>
</svg>
