<svg width="192" height="24" viewBox="0 0 192 24" fill="none" xmlns="http://www.w3.org/2000/svg">
<line x1="4.37114e-08" y1="11.5" x2="76" y2="11.5" stroke="white"/>
<g clip-path="url(#clip0_2791_105815)">
<path d="M107.775 7.38619C107.635 7.30121 107.461 7.29535 107.315 7.37082L101.814 10.2279C101.623 10.327 101.524 10.5432 101.574 10.7524L101.693 11.2548L97.9466 10.3433C97.2436 10.1722 96.5062 10.3201 95.9234 10.7489L95.6825 10.9261C94.8193 10.4134 93.7887 10.2579 92.8042 10.5017L90.3409 11.1115L90.4264 10.7524C90.4762 10.5432 90.3772 10.3269 90.1864 10.2279L84.6848 7.37082C84.5394 7.29535 84.3653 7.30116 84.2254 7.38619C84.0855 7.47118 84 7.62305 84 7.78678V16.2139C84 16.4183 84.1324 16.599 84.3272 16.6607L88.2107 17.8908C88.257 17.9054 88.3047 17.9127 88.3523 17.9127C88.4324 17.9127 88.5121 17.8921 88.5833 17.8518C88.6966 17.7877 88.7782 17.6792 88.8083 17.5524L88.872 17.2848L89.2428 17.461C89.0341 18.0053 89.1484 18.6462 89.5866 19.0843C89.8755 19.3733 90.2527 19.5211 90.6322 19.5287C90.6398 19.9082 90.7876 20.2854 91.0766 20.5743C91.3655 20.8633 91.7427 21.0112 92.1222 21.0188C92.1298 21.3983 92.2777 21.7754 92.5666 22.0643C92.8555 22.3533 93.2327 22.5012 93.6122 22.5088C93.6198 22.8883 93.7677 23.2654 94.0566 23.5544C94.3534 23.8511 94.7432 23.9995 95.1331 23.9995C95.523 23.9995 95.9128 23.8511 96.2096 23.5544L96.9159 22.8481C97.1108 22.6532 97.2412 22.4181 97.3081 22.1693C97.4577 22.2165 97.6131 22.2405 97.7685 22.2405C98.1584 22.2405 98.5483 22.0921 98.845 21.7953C99.134 21.5064 99.2818 21.1292 99.2895 20.7497C99.669 20.7421 100.046 20.5942 100.335 20.3053C100.624 20.0165 100.772 19.6396 100.779 19.2603C101.175 19.2525 101.545 19.0954 101.825 18.8152C102.113 18.5277 102.271 18.1454 102.271 17.7387C102.271 17.7309 102.271 17.7233 102.27 17.7155L103.13 17.2934L103.191 17.5523C103.222 17.6791 103.303 17.7875 103.417 17.8517C103.488 17.892 103.567 17.9125 103.648 17.9125C103.695 17.9125 103.743 17.9053 103.789 17.8906L107.673 16.6606C107.867 16.5989 108 16.4181 108 16.2137V7.78678C108 7.62305 107.915 7.47118 107.775 7.38619ZM84.9375 15.8707V8.55839L89.4297 10.8913L88.013 16.8448L84.9375 15.8707ZM90.2495 17.5943L90.9558 16.8879C91.0698 16.7739 91.2196 16.7169 91.3694 16.7169C91.5192 16.7169 91.6689 16.7739 91.7829 16.8879C91.8934 16.9984 91.9543 17.1453 91.9543 17.3015C91.9543 17.4577 91.8934 17.6046 91.7829 17.715L91.0766 18.4214C90.8486 18.6495 90.4775 18.6494 90.2495 18.4214C90.0215 18.1934 90.0215 17.8223 90.2495 17.5943ZM91.7396 19.0843L92.4459 18.378C92.5599 18.264 92.7097 18.207 92.8595 18.207C93.0092 18.207 93.159 18.264 93.273 18.378C93.5011 18.6061 93.5011 18.9771 93.273 19.2051L92.5667 19.9115C92.3387 20.1395 91.9676 20.1396 91.7396 19.9115C91.5115 19.6834 91.5115 19.3124 91.7396 19.0843ZM93.2296 20.5744L93.936 19.868C94.05 19.754 94.1997 19.697 94.3495 19.697C94.4993 19.697 94.6491 19.754 94.7631 19.868C94.9911 20.0961 94.9911 20.4671 94.7631 20.6951L94.0567 21.4015C93.8287 21.6295 93.4576 21.6296 93.2296 21.4015C93.0015 21.1734 93.0015 20.8024 93.2296 20.5744ZM96.2531 22.1852L95.5468 22.8915C95.3188 23.1195 94.9477 23.1195 94.7197 22.8915C94.4916 22.6635 94.4916 22.2924 94.7197 22.0644L95.426 21.358C95.5365 21.2476 95.6834 21.1867 95.8395 21.1867C95.9958 21.1867 96.1426 21.2476 96.2531 21.358C96.4812 21.5861 96.4812 21.9572 96.2531 22.1852ZM101.162 18.1524C101.052 18.2629 100.905 18.3237 100.749 18.3237C100.593 18.3237 100.446 18.2629 100.335 18.1525C100.335 18.1525 100.335 18.1524 100.335 18.1524L97.8053 15.6224C97.6222 15.4394 97.3254 15.4394 97.1423 15.6224C96.9592 15.8055 96.9592 16.1023 97.1423 16.2854L99.6723 18.8153C99.9003 19.0434 99.9003 19.4145 99.6723 19.6425C99.4443 19.8706 99.0732 19.8706 98.8452 19.6425L96.3152 17.1125C96.1321 16.9295 95.8353 16.9295 95.6522 17.1125C95.4691 17.2956 95.4692 17.5924 95.6522 17.7755L98.1822 20.3055C98.2927 20.4159 98.3535 20.5628 98.3535 20.719C98.3535 20.8753 98.2927 21.0221 98.1823 21.1326C97.9542 21.3606 97.5832 21.3606 97.3551 21.1326C97.3551 21.1326 95.456 19.2351 95.426 19.2051C95.137 18.9162 94.7598 18.7683 94.3804 18.7607C94.3727 18.3812 94.2249 18.004 93.936 17.7151C93.6472 17.4263 93.2703 17.2785 92.8911 17.2707C92.8832 16.8757 92.7262 16.5053 92.4459 16.2251C91.8523 15.6316 90.8865 15.6316 90.2929 16.2251L89.8204 16.6976L89.0939 16.3524L90.0967 12.1379L93.0295 11.4118C93.6381 11.2612 94.2697 11.313 94.8366 11.5487L93.997 12.1665C93.2884 12.6878 93.1078 13.6747 93.5857 14.4132C93.899 14.8973 94.4359 15.173 94.989 15.173C95.1886 15.173 95.3903 15.1371 95.5844 15.0622L98.0843 14.0966C98.0843 14.0966 101.16 17.3228 101.162 17.3254C101.39 17.5533 101.39 17.9243 101.162 18.1524ZM101.964 16.8218C101.923 16.7677 98.5469 13.223 98.5469 13.223C98.4121 13.0816 98.2102 13.043 98.0387 13.1092L95.2466 14.1875C94.9266 14.3111 94.5591 14.1917 94.3727 13.9038C94.1638 13.5809 94.2428 13.1494 94.5525 12.9215L96.479 11.5041C96.838 11.24 97.2922 11.1489 97.7251 11.2543L101.919 12.2745C101.925 12.276 101.931 12.2768 101.937 12.2779L102.908 16.3584L101.964 16.8218ZM107.062 15.8707L103.987 16.8448L102.57 10.8913L107.062 8.55839V15.8707Z" fill="white"/>
<path d="M87.6947 7.78466H91.7626V8.0098C91.7626 8.26869 91.9724 8.47855 92.2313 8.47855H93.8906C94.1495 8.47855 94.3594 8.26869 94.3594 8.0098C94.3594 7.75091 94.1495 7.54105 93.8906 7.54105H92.7001V7.45363C92.7001 5.94046 93.9312 4.70943 95.4443 4.70943H95.5313V5.34965C95.5313 5.60854 95.7411 5.8184 96 5.8184C96.2589 5.8184 96.4688 5.60854 96.4688 5.34965V4.70943H96.5557C98.0689 4.70943 99.2999 5.94046 99.2999 7.45363V7.54105H98.1094C97.8505 7.54105 97.6406 7.75091 97.6406 8.0098C97.6406 8.26869 97.8505 8.47855 98.1094 8.47855H99.7687C100.028 8.47855 100.237 8.26869 100.237 8.0098V7.78466H104.305C104.564 7.78466 104.774 7.5748 104.774 7.31591V6.81093C104.774 5.30071 103.78 4.01863 102.412 3.58358C102.64 3.27088 102.776 2.88604 102.776 2.47002V1.89271C102.776 0.849272 101.927 0.000366211 100.883 0.000366211C99.8399 0.000366211 98.991 0.849272 98.991 1.89271V2.46998C98.991 2.88562 99.126 3.27013 99.354 3.58265C98.9514 3.70996 98.5753 3.91218 98.2432 4.18307C98.0404 4.07802 97.8269 3.99116 97.6044 3.92493C97.8748 3.57923 98.0366 3.14465 98.0366 2.67276V2.03699C98.0366 0.91396 97.123 0.000366211 96 0.000366211C94.877 0.000366211 93.9633 0.914007 93.9633 2.03699V2.67276C93.9633 3.14465 94.1251 3.57923 94.3955 3.92493C94.1731 3.99116 93.9595 4.07802 93.7568 4.18307C93.4247 3.91218 93.0485 3.70996 92.6459 3.58265C92.874 3.27013 93.009 2.88557 93.009 2.46998V1.89271C93.009 0.849272 92.1601 0.000366211 91.1166 0.000366211C90.0731 0.000366211 89.2242 0.849272 89.2242 1.89271V2.46998C89.2242 2.88599 89.3595 3.27083 89.5879 3.58354C88.2199 4.01863 87.226 5.30071 87.226 6.81088V7.31587C87.226 7.57476 87.4359 7.78466 87.6947 7.78466ZM99.9285 1.89271C99.9285 1.36621 100.357 0.937866 100.883 0.937866C101.41 0.937866 101.838 1.36621 101.838 1.89271V2.46998C101.838 2.99648 101.41 3.42487 100.883 3.42487C100.357 3.42487 99.9285 2.99652 99.9285 2.46998V1.89271ZM100.379 4.36232H100.415V4.79512C100.415 5.05401 100.625 5.26387 100.883 5.26387C101.142 5.26387 101.352 5.05401 101.352 4.79512V4.36232H101.388C102.738 4.36232 103.837 5.46074 103.837 6.81088V6.84712H100.187C100.05 6.02512 99.64 5.29448 99.0534 4.7518C99.4451 4.49863 99.9014 4.36232 100.379 4.36232ZM94.9009 2.03699C94.9009 1.43094 95.394 0.937866 96 0.937866C96.6061 0.937866 97.0991 1.43094 97.0991 2.03699V2.67276C97.0991 3.2788 96.6061 3.77188 96 3.77188C95.394 3.77188 94.9009 3.2788 94.9009 2.67276V2.03699ZM90.1618 1.89271C90.1618 1.36621 90.5901 0.937866 91.1166 0.937866C91.6431 0.937866 92.0715 1.36621 92.0715 1.89271V2.46998C92.0715 2.99648 91.6432 3.42487 91.1166 3.42487C90.5901 3.42487 90.1618 2.99652 90.1618 2.46998V1.89271ZM88.1635 6.81088C88.1635 5.46074 89.2619 4.36232 90.6121 4.36232H90.6479V4.79512C90.6479 5.05401 90.8577 5.26387 91.1166 5.26387C91.3755 5.26387 91.5854 5.05401 91.5854 4.79512V4.36232H91.6212C92.0987 4.36232 92.5549 4.49863 92.9466 4.75185C92.36 5.29452 91.9503 6.02516 91.8134 6.84716H88.1635V6.81088Z" fill="white"/>
<path d="M96 8.47852C96.2589 8.47852 96.4688 8.26865 96.4688 8.00977C96.4688 7.75088 96.2589 7.54102 96 7.54102C95.7411 7.54102 95.5312 7.75088 95.5312 8.00977C95.5312 8.26865 95.7411 8.47852 96 8.47852Z" fill="white"/>
</g>
<line x1="116" y1="11.5" x2="192" y2="11.5" stroke="white"/>
<defs>
<clipPath id="clip0_2791_105815">
<rect width="24" height="24" fill="white" transform="translate(84)"/>
</clipPath>
</defs>
</svg>
