<svg width="304" height="60" viewBox="0 0 304 60" fill="none" xmlns="http://www.w3.org/2000/svg">
<g clip-path="url(#clip0_2791_105833)">
<path d="M57.0129 10.8708H47.3233L57.0129 1.23181V10.8708Z" fill="white"/>
<path d="M90.4673 10.8708H80.7777L90.4673 1.23181V10.8708Z" fill="white"/>
<path d="M124.169 0.585144H113.83V10.8709H124.169V0.585144Z" fill="white"/>
<path d="M124.169 49.7143H113.83V60H124.169V49.7143Z" fill="white"/>
<path d="M124.169 37.4269H113.83V47.7126H124.169V37.4269Z" fill="white"/>
<path d="M124.169 25.1497H113.83V35.4354H124.169V25.1497Z" fill="white"/>
<path d="M124.169 12.8623H113.83V23.148H124.169V12.8623Z" fill="white"/>
<path d="M178.345 0H178.314V10.2857H188.643V10.2549L178.345 0Z" fill="white"/>
<path d="M190.779 12.7904H190.748V23.0761H201.078V23.0453L190.779 12.7904Z" fill="white"/>
<path d="M213.295 59.4457H213.326V49.16H202.987V49.1908L213.295 59.4457Z" fill="white"/>
<path d="M201.047 47.1583H201.078V36.8726H190.748V36.9136L201.047 47.1583Z" fill="white"/>
<path d="M188.56 49.16H178.221V59.4457H188.56V49.16Z" fill="white"/>
<path d="M188.56 36.8726H178.221V47.1583H188.56V36.8726Z" fill="white"/>
<path d="M188.56 24.5954H178.221V34.8811H188.56V24.5954Z" fill="white"/>
<path d="M188.56 12.3182H178.221V22.604H188.56V12.3182Z" fill="white"/>
<path d="M213.326 0.0308228H202.987V10.3165H213.326V0.0308228Z" fill="white"/>
<path d="M213.326 36.8726H202.987V47.1583H213.326V36.8726Z" fill="white"/>
<path d="M213.326 24.5954H202.987V34.8811H213.326V24.5954Z" fill="white"/>
<path d="M213.326 12.3182H202.987V22.604H213.326V12.3182Z" fill="white"/>
<path d="M57.0129 49.7143H46.6732V60H57.0129V49.7143Z" fill="white"/>
<path d="M57.0129 37.4269H46.6732V47.7126H57.0129V37.4269Z" fill="white"/>
<path d="M57.0129 25.1497H46.6732V35.4354H57.0129V25.1497Z" fill="white"/>
<path d="M57.0129 12.8623H46.6732V23.148H57.0129V12.8623Z" fill="white"/>
<path d="M69.3545 0.585144H59.0148V10.8709H69.3545V0.585144Z" fill="white"/>
<path d="M69.3545 25.1497H59.0148V35.4354H69.3545V25.1497Z" fill="white"/>
<path d="M90.4673 49.7143H80.1276V60H90.4673V49.7143Z" fill="white"/>
<path d="M90.4673 37.4269H80.1276V47.7126H90.4673V37.4269Z" fill="white"/>
<path d="M90.4673 25.1497H80.1276V35.4354H90.4673V25.1497Z" fill="white"/>
<path d="M90.4673 12.8623H80.1276V23.148H90.4673V12.8623Z" fill="white"/>
<path d="M102.809 0.5849H92.4695V10.8706H102.809V0.5849Z" fill="white"/>
<path d="M201.088 24.5954H190.748V34.8811H201.088V24.5954Z" fill="white"/>
<path d="M102.809 25.1498H92.4695V35.4356H102.809V25.1498Z" fill="white"/>
<path d="M22.6504 49.7143H12.3107V60H22.6504V49.7143Z" fill="white"/>
<path d="M10.3397 37.4269H0V47.7126H10.3397V37.4269Z" fill="white"/>
<path d="M10.3397 25.1497H0V35.4354H10.3397V25.1497Z" fill="white"/>
<path d="M10.3397 12.8623H0V23.148H10.3397V12.8623Z" fill="white"/>
<path d="M34.992 12.8623H24.6523V23.148H34.992V12.8623Z" fill="white"/>
<path d="M34.992 37.4269H24.6523V47.7126H34.992V37.4269Z" fill="white"/>
<path d="M34.992 25.1497H24.6523V35.4354H34.992V25.1497Z" fill="white"/>
<path d="M22.6504 0.585144H12.3107V10.8709H22.6504V0.585144Z" fill="white"/>
<path d="M0 10.9427V10.9735H10.3397V0.687744H10.3088L0 10.9427Z" fill="white"/>
<path d="M35.0642 10.9427V10.9735H24.7245V0.687744H24.7555L35.0642 10.9427Z" fill="white"/>
<path d="M0 49.704V49.6732H10.3397V59.9589H10.3088L0 49.704Z" fill="white"/>
<path d="M35.0642 49.704V49.6732H24.7245V59.9589H24.7555L35.0642 49.704Z" fill="white"/>
<path d="M157.108 0.287415H146.768V10.5731H157.108V0.287415Z" fill="white"/>
<path d="M134.427 10.5423V10.5731H144.766V0.287415H144.725L134.427 10.5423Z" fill="white"/>
<path d="M169.584 10.5937H159.223V0.287415L169.584 10.5937Z" fill="white"/>
<path d="M144.766 12.6981H134.427V22.9838H144.766V12.6981Z" fill="white"/>
<path d="M157.211 25.0984H146.871V35.3841H157.211V25.0984Z" fill="white"/>
<path d="M169.553 37.3858H159.213V47.6715H169.553V37.3858Z" fill="white"/>
<path d="M134.561 49.6629V49.6321H144.9V59.9179H144.87L134.561 49.6629Z" fill="white"/>
<path d="M157.211 49.663H146.871V59.9487H157.211V49.663Z" fill="white"/>
<path d="M169.625 49.6629V49.6321H159.285V59.9179H159.316L169.625 49.6629Z" fill="white"/>
<path d="M134.623 25.3139V25.2831H144.962V35.5689H144.931L134.623 25.3139Z" fill="white"/>
<path d="M159.306 25.2831H159.275V35.5689H169.615V35.5381L159.306 25.2831Z" fill="white"/>
<path d="M291.493 0.0308228H281.154V10.3165H291.493V0.0308228Z" fill="white"/>
<path d="M268.802 10.2857V10.3165H279.141V0.0308228H279.11L268.802 10.2857Z" fill="white"/>
<path d="M303.969 10.3371H293.609V0.0308228L303.969 10.3371Z" fill="white"/>
<path d="M291.596 24.852H281.257V35.1377H291.596V24.852Z" fill="white"/>
<path d="M303.938 12.4517H293.598V22.7374H303.938V12.4517Z" fill="white"/>
<path d="M293.691 35.3122H293.66V25.0265H304V25.0573L293.691 35.3122Z" fill="white"/>
<path d="M246.213 24.5954H235.873V34.8811H246.213V24.5954Z" fill="white"/>
<path d="M233.913 36.8828H223.573V47.1685H233.913V36.8828Z" fill="white"/>
<path d="M233.913 24.5954H223.573V34.8811H233.913V24.5954Z" fill="white"/>
<path d="M233.913 12.3182H223.573V22.604H233.913V12.3182Z" fill="white"/>
<path d="M258.565 12.3182H248.225V22.604H258.565V12.3182Z" fill="white"/>
<path d="M258.565 36.8828H248.225V47.1685H258.565V36.8828Z" fill="white"/>
<path d="M258.565 24.5954H248.225V34.8811H258.565V24.5954Z" fill="white"/>
<path d="M246.213 0.0308228H235.873V10.3165H246.213V0.0308228Z" fill="white"/>
<path d="M223.573 10.3987V10.4295H233.902V0.143738H233.872L223.573 10.3987Z" fill="white"/>
<path d="M258.637 10.3987V10.4295H248.298V0.143738H248.329L258.637 10.3987Z" fill="white"/>
<path d="M233.913 49.16H223.573V59.4457H233.913V49.16Z" fill="white"/>
<path d="M258.565 49.16H248.225V59.4457H258.565V49.16Z" fill="white"/>
<path d="M279.141 12.4517H268.802V22.7374H279.141V12.4517Z" fill="white"/>
<path d="M279.141 49.2934H268.802V59.5791H279.141V49.2934Z" fill="white"/>
<path d="M279.141 37.006H268.802V47.2917H279.141V37.006Z" fill="white"/>
<path d="M279.141 24.7288H268.802V35.0145H279.141V24.7288Z" fill="white"/>
<path d="M279.141 12.4517H268.802V22.7374H279.141V12.4517Z" fill="white"/>
</g>
<defs>
<clipPath id="clip0_2791_105833">
<rect width="304" height="60" fill="white"/>
</clipPath>
</defs>
</svg>
