<svg width="204" height="40" viewBox="0 0 204 40" fill="none" xmlns="http://www.w3.org/2000/svg">
<g clip-path="url(#clip0_2791_108524)">
<path d="M38.2591 7.24723H31.7568L38.2591 0.821228V7.24723Z" fill="url(#paint0_linear_2791_108524)"/>
<path d="M60.7083 7.24723H54.2061L60.7083 0.821228V7.24723Z" fill="url(#paint1_linear_2791_108524)"/>
<path d="M83.3242 0.390076H76.3857V7.24722H83.3242V0.390076Z" fill="url(#paint2_linear_2791_108524)"/>
<path d="M83.3242 33.1429H76.3857V40H83.3242V33.1429Z" fill="url(#paint3_linear_2791_108524)"/>
<path d="M83.3242 24.9512H76.3857V31.8084H83.3242V24.9512Z" fill="url(#paint4_linear_2791_108524)"/>
<path d="M83.3242 16.7665H76.3857V23.6236H83.3242V16.7665Z" fill="url(#paint5_linear_2791_108524)"/>
<path d="M83.3242 8.57486H76.3857V15.432H83.3242V8.57486Z" fill="url(#paint6_linear_2791_108524)"/>
<path d="M119.679 0H119.658V6.85714H126.59V6.83661L119.679 0Z" fill="url(#paint7_linear_2791_108524)"/>
<path d="M128.023 8.52695H128.002V15.3841H134.934V15.3636L128.023 8.52695Z" fill="url(#paint8_linear_2791_108524)"/>
<path d="M143.133 39.6305H143.153V32.7733H136.215V32.7938L143.133 39.6305Z" fill="url(#paint9_linear_2791_108524)"/>
<path d="M134.913 31.4388H134.934V24.5817H128.002V24.6091L134.913 31.4388Z" fill="url(#paint10_linear_2791_108524)"/>
<path d="M126.534 32.7733H119.596V39.6305H126.534V32.7733Z" fill="url(#paint11_linear_2791_108524)"/>
<path d="M126.534 24.5817H119.596V31.4388H126.534V24.5817Z" fill="url(#paint12_linear_2791_108524)"/>
<path d="M126.534 16.3969H119.596V23.2541H126.534V16.3969Z" fill="url(#paint13_linear_2791_108524)"/>
<path d="M126.534 8.21216H119.596V15.0693H126.534V8.21216Z" fill="url(#paint14_linear_2791_108524)"/>
<path d="M143.153 0.0205383H136.215V6.87768H143.153V0.0205383Z" fill="url(#paint15_linear_2791_108524)"/>
<path d="M143.153 24.5817H136.215V31.4388H143.153V24.5817Z" fill="url(#paint16_linear_2791_108524)"/>
<path d="M143.153 16.3969H136.215V23.2541H143.153V16.3969Z" fill="url(#paint17_linear_2791_108524)"/>
<path d="M143.153 8.21216H136.215V15.0693H143.153V8.21216Z" fill="url(#paint18_linear_2791_108524)"/>
<path d="M38.2588 33.1429H31.3203V40H38.2588V33.1429Z" fill="url(#paint19_linear_2791_108524)"/>
<path d="M38.2588 24.9512H31.3203V31.8084H38.2588V24.9512Z" fill="url(#paint20_linear_2791_108524)"/>
<path d="M38.2588 16.7665H31.3203V23.6236H38.2588V16.7665Z" fill="url(#paint21_linear_2791_108524)"/>
<path d="M38.2588 8.57486H31.3203V15.432H38.2588V8.57486Z" fill="url(#paint22_linear_2791_108524)"/>
<path d="M46.5401 0.390076H39.6016V7.24722H46.5401V0.390076Z" fill="url(#paint23_linear_2791_108524)"/>
<path d="M46.5401 16.7665H39.6016V23.6236H46.5401V16.7665Z" fill="url(#paint24_linear_2791_108524)"/>
<path d="M60.708 33.1429H53.7695V40H60.708V33.1429Z" fill="url(#paint25_linear_2791_108524)"/>
<path d="M60.708 24.9512H53.7695V31.8084H60.708V24.9512Z" fill="url(#paint26_linear_2791_108524)"/>
<path d="M60.708 16.7665H53.7695V23.6236H60.708V16.7665Z" fill="url(#paint27_linear_2791_108524)"/>
<path d="M60.708 8.57486H53.7695V15.432H60.708V8.57486Z" fill="url(#paint28_linear_2791_108524)"/>
<path d="M68.9902 0.389954H62.0518V7.2471H68.9902V0.389954Z" fill="url(#paint29_linear_2791_108524)"/>
<path d="M134.94 16.3969H128.002V23.2541H134.94V16.3969Z" fill="url(#paint30_linear_2791_108524)"/>
<path d="M68.9902 16.7666H62.0518V23.6237H68.9902V16.7666Z" fill="url(#paint31_linear_2791_108524)"/>
<path d="M15.1992 33.1429H8.26074V40H15.1992V33.1429Z" fill="url(#paint32_linear_2791_108524)"/>
<path d="M6.93849 24.9512H0V31.8084H6.93849V24.9512Z" fill="url(#paint33_linear_2791_108524)"/>
<path d="M6.93849 16.7665H0V23.6236H6.93849V16.7665Z" fill="url(#paint34_linear_2791_108524)"/>
<path d="M6.93849 8.57486H0V15.432H6.93849V8.57486Z" fill="url(#paint35_linear_2791_108524)"/>
<path d="M23.4815 8.57486H16.543V15.432H23.4815V8.57486Z" fill="url(#paint36_linear_2791_108524)"/>
<path d="M23.4815 24.9512H16.543V31.8084H23.4815V24.9512Z" fill="url(#paint37_linear_2791_108524)"/>
<path d="M23.4815 16.7665H16.543V23.6236H23.4815V16.7665Z" fill="url(#paint38_linear_2791_108524)"/>
<path d="M15.1992 0.390076H8.26074V7.24722H15.1992V0.390076Z" fill="url(#paint39_linear_2791_108524)"/>
<path d="M0 7.29514V7.31567H6.93849V0.458527H6.91772L0 7.29514Z" fill="url(#paint40_linear_2791_108524)"/>
<path d="M23.5303 7.29514V7.31567H16.5918V0.458527H16.6126L23.5303 7.29514Z" fill="url(#paint41_linear_2791_108524)"/>
<path d="M0 33.136V33.1155H6.93849V39.9726H6.91772L0 33.136Z" fill="url(#paint42_linear_2791_108524)"/>
<path d="M23.5303 33.136V33.1155H16.5918V39.9726H16.6126L23.5303 33.136Z" fill="url(#paint43_linear_2791_108524)"/>
<path d="M105.428 0.19162H98.4893V7.04876H105.428V0.19162Z" fill="url(#paint44_linear_2791_108524)"/>
<path d="M90.207 7.02823V7.04876H97.1455V0.19162H97.1178L90.207 7.02823Z" fill="url(#paint45_linear_2791_108524)"/>
<path d="M113.8 7.06245H106.848V0.19162L113.8 7.06245Z" fill="url(#paint46_linear_2791_108524)"/>
<path d="M97.1455 8.46536H90.207V15.3225H97.1455V8.46536Z" fill="url(#paint47_linear_2791_108524)"/>
<path d="M105.497 16.7322H98.5586V23.5894H105.497V16.7322Z" fill="url(#paint48_linear_2791_108524)"/>
<path d="M113.778 24.9239H106.84V31.781H113.778V24.9239Z" fill="url(#paint49_linear_2791_108524)"/>
<path d="M90.2969 33.1086V33.0881H97.2354V39.9452H97.2146L90.2969 33.1086Z" fill="url(#paint50_linear_2791_108524)"/>
<path d="M105.497 33.1086H98.5586V39.9658H105.497V33.1086Z" fill="url(#paint51_linear_2791_108524)"/>
<path d="M113.827 33.1086V33.0881H106.889V39.9452H106.909L113.827 33.1086Z" fill="url(#paint52_linear_2791_108524)"/>
<path d="M90.3389 16.876V16.8554H97.2774V23.7126H97.2566L90.3389 16.876Z" fill="url(#paint53_linear_2791_108524)"/>
<path d="M106.903 16.8554H106.882V23.7126H113.82V23.6921L106.903 16.8554Z" fill="url(#paint54_linear_2791_108524)"/>
<path d="M195.607 0.0205383H188.669V6.87768H195.607V0.0205383Z" fill="url(#paint55_linear_2791_108524)"/>
<path d="M180.38 6.85715V6.87768H187.318V0.0205383H187.298L180.38 6.85715Z" fill="url(#paint56_linear_2791_108524)"/>
<path d="M203.98 6.89137H197.027V0.0205383L203.98 6.89137Z" fill="url(#paint57_linear_2791_108524)"/>
<path d="M195.677 16.568H188.738V23.4251H195.677V16.568Z" fill="url(#paint58_linear_2791_108524)"/>
<path d="M203.958 8.30112H197.02V15.1583H203.958V8.30112Z" fill="url(#paint59_linear_2791_108524)"/>
<path d="M197.082 23.5415H197.062V16.6844H204V16.7049L197.082 23.5415Z" fill="url(#paint60_linear_2791_108524)"/>
<path d="M165.222 16.3969H158.283V23.2541H165.222V16.3969Z" fill="url(#paint61_linear_2791_108524)"/>
<path d="M156.968 24.5885H150.029V31.4457H156.968V24.5885Z" fill="url(#paint62_linear_2791_108524)"/>
<path d="M156.968 16.3969H150.029V23.2541H156.968V16.3969Z" fill="url(#paint63_linear_2791_108524)"/>
<path d="M156.968 8.21216H150.029V15.0693H156.968V8.21216Z" fill="url(#paint64_linear_2791_108524)"/>
<path d="M173.511 8.21216H166.572V15.0693H173.511V8.21216Z" fill="url(#paint65_linear_2791_108524)"/>
<path d="M173.511 24.5885H166.572V31.4457H173.511V24.5885Z" fill="url(#paint66_linear_2791_108524)"/>
<path d="M173.511 16.3969H166.572V23.2541H173.511V16.3969Z" fill="url(#paint67_linear_2791_108524)"/>
<path d="M165.222 0.0205383H158.283V6.87768H165.222V0.0205383Z" fill="url(#paint68_linear_2791_108524)"/>
<path d="M150.029 6.93241V6.95294H156.961V0.0957947H156.94L150.029 6.93241Z" fill="url(#paint69_linear_2791_108524)"/>
<path d="M173.56 6.93241V6.95294H166.621V0.0957947H166.642L173.56 6.93241Z" fill="url(#paint70_linear_2791_108524)"/>
<path d="M156.968 32.7733H150.029V39.6305H156.968V32.7733Z" fill="url(#paint71_linear_2791_108524)"/>
<path d="M173.511 32.7733H166.572V39.6305H173.511V32.7733Z" fill="url(#paint72_linear_2791_108524)"/>
<path d="M187.318 8.30112H180.38V15.1583H187.318V8.30112Z" fill="url(#paint73_linear_2791_108524)"/>
<path d="M187.318 32.8623H180.38V39.7194H187.318V32.8623Z" fill="url(#paint74_linear_2791_108524)"/>
<path d="M187.318 24.6707H180.38V31.5278H187.318V24.6707Z" fill="url(#paint75_linear_2791_108524)"/>
<path d="M187.318 16.4859H180.38V23.343H187.318V16.4859Z" fill="url(#paint76_linear_2791_108524)"/>
<path d="M187.318 8.30112H180.38V15.1583H187.318V8.30112Z" fill="url(#paint77_linear_2791_108524)"/>
</g>
<defs>
<linearGradient id="paint0_linear_2791_108524" x1="-23.1625" y1="4.03765" x2="198.128" y2="4.03765" gradientUnits="userSpaceOnUse">
<stop stop-color="#EB6365"/>
<stop offset="1" stop-color="#7561A9"/>
</linearGradient>
<linearGradient id="paint1_linear_2791_108524" x1="-4.13925e-05" y1="1.78707e-05" x2="198.128" y2="1.78707e-05" gradientUnits="userSpaceOnUse">
<stop stop-color="#EB6365"/>
<stop offset="1" stop-color="#7561A9"/>
</linearGradient>
<linearGradient id="paint2_linear_2791_108524" x1="-7.71173e-05" y1="3.81865" x2="198.128" y2="3.81865" gradientUnits="userSpaceOnUse">
<stop stop-color="#EB6365"/>
<stop offset="1" stop-color="#7561A9"/>
</linearGradient>
<linearGradient id="paint3_linear_2791_108524" x1="-7.71173e-05" y1="36.5714" x2="198.128" y2="36.5714" gradientUnits="userSpaceOnUse">
<stop stop-color="#EB6365"/>
<stop offset="1" stop-color="#7561A9"/>
</linearGradient>
<linearGradient id="paint4_linear_2791_108524" x1="-7.71173e-05" y1="28.3798" x2="198.128" y2="28.3798" gradientUnits="userSpaceOnUse">
<stop stop-color="#EB6365"/>
<stop offset="1" stop-color="#7561A9"/>
</linearGradient>
<linearGradient id="paint5_linear_2791_108524" x1="-7.71173e-05" y1="20.1951" x2="198.128" y2="20.1951" gradientUnits="userSpaceOnUse">
<stop stop-color="#EB6365"/>
<stop offset="1" stop-color="#7561A9"/>
</linearGradient>
<linearGradient id="paint6_linear_2791_108524" x1="-7.71173e-05" y1="12.0034" x2="198.128" y2="12.0034" gradientUnits="userSpaceOnUse">
<stop stop-color="#EB6365"/>
<stop offset="1" stop-color="#7561A9"/>
</linearGradient>
<linearGradient id="paint7_linear_2791_108524" x1="0.000436431" y1="3.42857" x2="198.128" y2="3.42857" gradientUnits="userSpaceOnUse">
<stop stop-color="#EB6365"/>
<stop offset="1" stop-color="#7561A9"/>
</linearGradient>
<linearGradient id="paint8_linear_2791_108524" x1="-6.98577e-06" y1="11.9555" x2="198.128" y2="11.9555" gradientUnits="userSpaceOnUse">
<stop stop-color="#EB6365"/>
<stop offset="1" stop-color="#7561A9"/>
</linearGradient>
<linearGradient id="paint9_linear_2791_108524" x1="0.000188757" y1="36.2019" x2="198.128" y2="36.2019" gradientUnits="userSpaceOnUse">
<stop stop-color="#EB6365"/>
<stop offset="1" stop-color="#7561A9"/>
</linearGradient>
<linearGradient id="paint10_linear_2791_108524" x1="-6.98577e-06" y1="28.0103" x2="198.128" y2="28.0103" gradientUnits="userSpaceOnUse">
<stop stop-color="#EB6365"/>
<stop offset="1" stop-color="#7561A9"/>
</linearGradient>
<linearGradient id="paint11_linear_2791_108524" x1="0.000324976" y1="36.2019" x2="198.128" y2="36.2019" gradientUnits="userSpaceOnUse">
<stop stop-color="#EB6365"/>
<stop offset="1" stop-color="#7561A9"/>
</linearGradient>
<linearGradient id="paint12_linear_2791_108524" x1="0.000324976" y1="28.0103" x2="198.128" y2="28.0103" gradientUnits="userSpaceOnUse">
<stop stop-color="#EB6365"/>
<stop offset="1" stop-color="#7561A9"/>
</linearGradient>
<linearGradient id="paint13_linear_2791_108524" x1="0.000324976" y1="19.8255" x2="198.128" y2="19.8255" gradientUnits="userSpaceOnUse">
<stop stop-color="#EB6365"/>
<stop offset="1" stop-color="#7561A9"/>
</linearGradient>
<linearGradient id="paint14_linear_2791_108524" x1="0.000324976" y1="11.6407" x2="198.128" y2="11.6407" gradientUnits="userSpaceOnUse">
<stop stop-color="#EB6365"/>
<stop offset="1" stop-color="#7561A9"/>
</linearGradient>
<linearGradient id="paint15_linear_2791_108524" x1="-23.1627" y1="3.44911" x2="198.128" y2="3.44911" gradientUnits="userSpaceOnUse">
<stop stop-color="#EB6365"/>
<stop offset="1" stop-color="#7561A9"/>
</linearGradient>
<linearGradient id="paint16_linear_2791_108524" x1="-23.1627" y1="28.0103" x2="198.128" y2="28.0103" gradientUnits="userSpaceOnUse">
<stop stop-color="#EB6365"/>
<stop offset="1" stop-color="#7561A9"/>
</linearGradient>
<linearGradient id="paint17_linear_2791_108524" x1="-23.1627" y1="19.8255" x2="198.128" y2="19.8255" gradientUnits="userSpaceOnUse">
<stop stop-color="#EB6365"/>
<stop offset="1" stop-color="#7561A9"/>
</linearGradient>
<linearGradient id="paint18_linear_2791_108524" x1="-23.1627" y1="11.6407" x2="198.128" y2="11.6407" gradientUnits="userSpaceOnUse">
<stop stop-color="#EB6365"/>
<stop offset="1" stop-color="#7561A9"/>
</linearGradient>
<linearGradient id="paint19_linear_2791_108524" x1="0.000154201" y1="36.5714" x2="198.128" y2="36.5714" gradientUnits="userSpaceOnUse">
<stop stop-color="#EB6365"/>
<stop offset="1" stop-color="#7561A9"/>
</linearGradient>
<linearGradient id="paint20_linear_2791_108524" x1="0.000154201" y1="28.3798" x2="198.128" y2="28.3798" gradientUnits="userSpaceOnUse">
<stop stop-color="#EB6365"/>
<stop offset="1" stop-color="#7561A9"/>
</linearGradient>
<linearGradient id="paint21_linear_2791_108524" x1="0.000154201" y1="20.1951" x2="198.128" y2="20.1951" gradientUnits="userSpaceOnUse">
<stop stop-color="#EB6365"/>
<stop offset="1" stop-color="#7561A9"/>
</linearGradient>
<linearGradient id="paint22_linear_2791_108524" x1="0.000154201" y1="12.0034" x2="198.128" y2="12.0034" gradientUnits="userSpaceOnUse">
<stop stop-color="#EB6365"/>
<stop offset="1" stop-color="#7561A9"/>
</linearGradient>
<linearGradient id="paint23_linear_2791_108524" x1="-0.000469657" y1="3.81865" x2="198.127" y2="3.81865" gradientUnits="userSpaceOnUse">
<stop stop-color="#EB6365"/>
<stop offset="1" stop-color="#7561A9"/>
</linearGradient>
<linearGradient id="paint24_linear_2791_108524" x1="-0.000469657" y1="20.1951" x2="198.127" y2="20.1951" gradientUnits="userSpaceOnUse">
<stop stop-color="#EB6365"/>
<stop offset="1" stop-color="#7561A9"/>
</linearGradient>
<linearGradient id="paint25_linear_2791_108524" x1="-0.000322073" y1="36.5714" x2="198.128" y2="36.5714" gradientUnits="userSpaceOnUse">
<stop stop-color="#EB6365"/>
<stop offset="1" stop-color="#7561A9"/>
</linearGradient>
<linearGradient id="paint26_linear_2791_108524" x1="-0.000322073" y1="28.3798" x2="198.128" y2="28.3798" gradientUnits="userSpaceOnUse">
<stop stop-color="#EB6365"/>
<stop offset="1" stop-color="#7561A9"/>
</linearGradient>
<linearGradient id="paint27_linear_2791_108524" x1="-0.000322073" y1="20.1951" x2="198.128" y2="20.1951" gradientUnits="userSpaceOnUse">
<stop stop-color="#EB6365"/>
<stop offset="1" stop-color="#7561A9"/>
</linearGradient>
<linearGradient id="paint28_linear_2791_108524" x1="-0.000322073" y1="12.0034" x2="198.128" y2="12.0034" gradientUnits="userSpaceOnUse">
<stop stop-color="#EB6365"/>
<stop offset="1" stop-color="#7561A9"/>
</linearGradient>
<linearGradient id="paint29_linear_2791_108524" x1="-23.1628" y1="3.81852" x2="198.128" y2="3.81852" gradientUnits="userSpaceOnUse">
<stop stop-color="#EB6365"/>
<stop offset="1" stop-color="#7561A9"/>
</linearGradient>
<linearGradient id="paint30_linear_2791_108524" x1="0.000209408" y1="19.8255" x2="198.128" y2="19.8255" gradientUnits="userSpaceOnUse">
<stop stop-color="#EB6365"/>
<stop offset="1" stop-color="#7561A9"/>
</linearGradient>
<linearGradient id="paint31_linear_2791_108524" x1="-23.1628" y1="20.1951" x2="198.128" y2="20.1951" gradientUnits="userSpaceOnUse">
<stop stop-color="#EB6365"/>
<stop offset="1" stop-color="#7561A9"/>
</linearGradient>
<linearGradient id="paint32_linear_2791_108524" x1="-0.000357959" y1="36.5646" x2="198.128" y2="36.5646" gradientUnits="userSpaceOnUse">
<stop stop-color="#EB6365"/>
<stop offset="1" stop-color="#7561A9"/>
</linearGradient>
<linearGradient id="paint33_linear_2791_108524" x1="0" y1="28.3798" x2="198.128" y2="28.3798" gradientUnits="userSpaceOnUse">
<stop stop-color="#EB6365"/>
<stop offset="1" stop-color="#7561A9"/>
</linearGradient>
<linearGradient id="paint34_linear_2791_108524" x1="0" y1="20.1951" x2="198.128" y2="20.1951" gradientUnits="userSpaceOnUse">
<stop stop-color="#EB6365"/>
<stop offset="1" stop-color="#7561A9"/>
</linearGradient>
<linearGradient id="paint35_linear_2791_108524" x1="0" y1="12.0034" x2="198.128" y2="12.0034" gradientUnits="userSpaceOnUse">
<stop stop-color="#EB6365"/>
<stop offset="1" stop-color="#7561A9"/>
</linearGradient>
<linearGradient id="paint36_linear_2791_108524" x1="-7.92886e-06" y1="12.0034" x2="198.128" y2="12.0034" gradientUnits="userSpaceOnUse">
<stop stop-color="#EB6365"/>
<stop offset="1" stop-color="#7561A9"/>
</linearGradient>
<linearGradient id="paint37_linear_2791_108524" x1="-7.92886e-06" y1="28.3798" x2="198.128" y2="28.3798" gradientUnits="userSpaceOnUse">
<stop stop-color="#EB6365"/>
<stop offset="1" stop-color="#7561A9"/>
</linearGradient>
<linearGradient id="paint38_linear_2791_108524" x1="-7.92886e-06" y1="20.1951" x2="198.128" y2="20.1951" gradientUnits="userSpaceOnUse">
<stop stop-color="#EB6365"/>
<stop offset="1" stop-color="#7561A9"/>
</linearGradient>
<linearGradient id="paint39_linear_2791_108524" x1="-0.000357959" y1="3.81865" x2="198.128" y2="3.81865" gradientUnits="userSpaceOnUse">
<stop stop-color="#EB6365"/>
<stop offset="1" stop-color="#7561A9"/>
</linearGradient>
<linearGradient id="paint40_linear_2791_108524" x1="0" y1="3.8871" x2="198.128" y2="3.8871" gradientUnits="userSpaceOnUse">
<stop stop-color="#EB6365"/>
<stop offset="1" stop-color="#7561A9"/>
</linearGradient>
<linearGradient id="paint41_linear_2791_108524" x1="0.000347262" y1="3.8871" x2="198.128" y2="3.8871" gradientUnits="userSpaceOnUse">
<stop stop-color="#EB6365"/>
<stop offset="1" stop-color="#7561A9"/>
</linearGradient>
<linearGradient id="paint42_linear_2791_108524" x1="0" y1="36.5441" x2="198.128" y2="36.5441" gradientUnits="userSpaceOnUse">
<stop stop-color="#EB6365"/>
<stop offset="1" stop-color="#7561A9"/>
</linearGradient>
<linearGradient id="paint43_linear_2791_108524" x1="0.000347262" y1="36.5441" x2="198.128" y2="36.5441" gradientUnits="userSpaceOnUse">
<stop stop-color="#EB6365"/>
<stop offset="1" stop-color="#7561A9"/>
</linearGradient>
<linearGradient id="paint44_linear_2791_108524" x1="5.967e-05" y1="3.62019" x2="198.128" y2="3.62019" gradientUnits="userSpaceOnUse">
<stop stop-color="#EB6365"/>
<stop offset="1" stop-color="#7561A9"/>
</linearGradient>
<linearGradient id="paint45_linear_2791_108524" x1="-0.000293034" y1="3.62019" x2="198.128" y2="3.62019" gradientUnits="userSpaceOnUse">
<stop stop-color="#EB6365"/>
<stop offset="1" stop-color="#7561A9"/>
</linearGradient>
<linearGradient id="paint46_linear_2791_108524" x1="0.000445572" y1="3.62703" x2="198.128" y2="3.62703" gradientUnits="userSpaceOnUse">
<stop stop-color="#EB6365"/>
<stop offset="1" stop-color="#7561A9"/>
</linearGradient>
<linearGradient id="paint47_linear_2791_108524" x1="-0.000293034" y1="11.8939" x2="198.128" y2="11.8939" gradientUnits="userSpaceOnUse">
<stop stop-color="#EB6365"/>
<stop offset="1" stop-color="#7561A9"/>
</linearGradient>
<linearGradient id="paint48_linear_2791_108524" x1="0.00015153" y1="20.1608" x2="198.128" y2="20.1608" gradientUnits="userSpaceOnUse">
<stop stop-color="#EB6365"/>
<stop offset="1" stop-color="#7561A9"/>
</linearGradient>
<linearGradient id="paint49_linear_2791_108524" x1="-0.000583902" y1="28.3524" x2="198.128" y2="28.3524" gradientUnits="userSpaceOnUse">
<stop stop-color="#EB6365"/>
<stop offset="1" stop-color="#7561A9"/>
</linearGradient>
<linearGradient id="paint50_linear_2791_108524" x1="-0.000565283" y1="36.5167" x2="198.128" y2="36.5167" gradientUnits="userSpaceOnUse">
<stop stop-color="#EB6365"/>
<stop offset="1" stop-color="#7561A9"/>
</linearGradient>
<linearGradient id="paint51_linear_2791_108524" x1="0.00015153" y1="36.5372" x2="198.128" y2="36.5372" gradientUnits="userSpaceOnUse">
<stop stop-color="#EB6365"/>
<stop offset="1" stop-color="#7561A9"/>
</linearGradient>
<linearGradient id="paint52_linear_2791_108524" x1="-0.000115647" y1="36.5167" x2="198.128" y2="36.5167" gradientUnits="userSpaceOnUse">
<stop stop-color="#EB6365"/>
<stop offset="1" stop-color="#7561A9"/>
</linearGradient>
<linearGradient id="paint53_linear_2791_108524" x1="7.43579e-05" y1="20.284" x2="198.128" y2="20.284" gradientUnits="userSpaceOnUse">
<stop stop-color="#EB6365"/>
<stop offset="1" stop-color="#7561A9"/>
</linearGradient>
<linearGradient id="paint54_linear_2791_108524" x1="8.62145e-05" y1="20.284" x2="198.128" y2="20.284" gradientUnits="userSpaceOnUse">
<stop stop-color="#EB6365"/>
<stop offset="1" stop-color="#7561A9"/>
</linearGradient>
<linearGradient id="paint55_linear_2791_108524" x1="-23.1633" y1="3.44911" x2="198.128" y2="3.44911" gradientUnits="userSpaceOnUse">
<stop stop-color="#EB6365"/>
<stop offset="1" stop-color="#7561A9"/>
</linearGradient>
<linearGradient id="paint56_linear_2791_108524" x1="-0.000537448" y1="3.44911" x2="198.128" y2="3.44911" gradientUnits="userSpaceOnUse">
<stop stop-color="#EB6365"/>
<stop offset="1" stop-color="#7561A9"/>
</linearGradient>
<linearGradient id="paint57_linear_2791_108524" x1="-0.000108485" y1="3.45595" x2="198.128" y2="3.45595" gradientUnits="userSpaceOnUse">
<stop stop-color="#EB6365"/>
<stop offset="1" stop-color="#7561A9"/>
</linearGradient>
<linearGradient id="paint58_linear_2791_108524" x1="0.000634526" y1="19.9966" x2="198.128" y2="19.9966" gradientUnits="userSpaceOnUse">
<stop stop-color="#EB6365"/>
<stop offset="1" stop-color="#7561A9"/>
</linearGradient>
<linearGradient id="paint59_linear_2791_108524" x1="-0.000843577" y1="11.7297" x2="198.127" y2="11.7297" gradientUnits="userSpaceOnUse">
<stop stop-color="#EB6365"/>
<stop offset="1" stop-color="#7561A9"/>
</linearGradient>
<linearGradient id="paint60_linear_2791_108524" x1="-0.000396746" y1="20.1129" x2="198.128" y2="20.1129" gradientUnits="userSpaceOnUse">
<stop stop-color="#EB6365"/>
<stop offset="1" stop-color="#7561A9"/>
</linearGradient>
<linearGradient id="paint61_linear_2791_108524" x1="-0.000637796" y1="19.8255" x2="198.128" y2="19.8255" gradientUnits="userSpaceOnUse">
<stop stop-color="#EB6365"/>
<stop offset="1" stop-color="#7561A9"/>
</linearGradient>
<linearGradient id="paint62_linear_2791_108524" x1="0.000309026" y1="28.0103" x2="198.128" y2="28.0103" gradientUnits="userSpaceOnUse">
<stop stop-color="#EB6365"/>
<stop offset="1" stop-color="#7561A9"/>
</linearGradient>
<linearGradient id="paint63_linear_2791_108524" x1="0.000309026" y1="19.8255" x2="198.128" y2="19.8255" gradientUnits="userSpaceOnUse">
<stop stop-color="#EB6365"/>
<stop offset="1" stop-color="#7561A9"/>
</linearGradient>
<linearGradient id="paint64_linear_2791_108524" x1="0.000309026" y1="11.6407" x2="198.128" y2="11.6407" gradientUnits="userSpaceOnUse">
<stop stop-color="#EB6365"/>
<stop offset="1" stop-color="#7561A9"/>
</linearGradient>
<linearGradient id="paint65_linear_2791_108524" x1="-1.5435e-05" y1="11.6407" x2="198.128" y2="11.6407" gradientUnits="userSpaceOnUse">
<stop stop-color="#EB6365"/>
<stop offset="1" stop-color="#7561A9"/>
</linearGradient>
<linearGradient id="paint66_linear_2791_108524" x1="-1.5435e-05" y1="28.0103" x2="198.128" y2="28.0103" gradientUnits="userSpaceOnUse">
<stop stop-color="#EB6365"/>
<stop offset="1" stop-color="#7561A9"/>
</linearGradient>
<linearGradient id="paint67_linear_2791_108524" x1="-1.5435e-05" y1="19.8255" x2="198.128" y2="19.8255" gradientUnits="userSpaceOnUse">
<stop stop-color="#EB6365"/>
<stop offset="1" stop-color="#7561A9"/>
</linearGradient>
<linearGradient id="paint68_linear_2791_108524" x1="-0.000637796" y1="3.44911" x2="198.128" y2="3.44911" gradientUnits="userSpaceOnUse">
<stop stop-color="#EB6365"/>
<stop offset="1" stop-color="#7561A9"/>
</linearGradient>
<linearGradient id="paint69_linear_2791_108524" x1="5.53939e-05" y1="3.52437" x2="198.128" y2="3.52437" gradientUnits="userSpaceOnUse">
<stop stop-color="#EB6365"/>
<stop offset="1" stop-color="#7561A9"/>
</linearGradient>
<linearGradient id="paint70_linear_2791_108524" x1="0.000335341" y1="3.52437" x2="198.128" y2="3.52437" gradientUnits="userSpaceOnUse">
<stop stop-color="#EB6365"/>
<stop offset="1" stop-color="#7561A9"/>
</linearGradient>
<linearGradient id="paint71_linear_2791_108524" x1="0.000309026" y1="36.2019" x2="198.128" y2="36.2019" gradientUnits="userSpaceOnUse">
<stop stop-color="#EB6365"/>
<stop offset="1" stop-color="#7561A9"/>
</linearGradient>
<linearGradient id="paint72_linear_2791_108524" x1="-1.5435e-05" y1="36.2019" x2="198.128" y2="36.2019" gradientUnits="userSpaceOnUse">
<stop stop-color="#EB6365"/>
<stop offset="1" stop-color="#7561A9"/>
</linearGradient>
<linearGradient id="paint73_linear_2791_108524" x1="-0.000537448" y1="11.7297" x2="198.128" y2="11.7297" gradientUnits="userSpaceOnUse">
<stop stop-color="#EB6365"/>
<stop offset="1" stop-color="#7561A9"/>
</linearGradient>
<linearGradient id="paint74_linear_2791_108524" x1="-0.000537448" y1="36.2908" x2="198.128" y2="36.2908" gradientUnits="userSpaceOnUse">
<stop stop-color="#EB6365"/>
<stop offset="1" stop-color="#7561A9"/>
</linearGradient>
<linearGradient id="paint75_linear_2791_108524" x1="-0.000537448" y1="28.0992" x2="198.128" y2="28.0992" gradientUnits="userSpaceOnUse">
<stop stop-color="#EB6365"/>
<stop offset="1" stop-color="#7561A9"/>
</linearGradient>
<linearGradient id="paint76_linear_2791_108524" x1="-0.000537448" y1="19.9145" x2="198.128" y2="19.9145" gradientUnits="userSpaceOnUse">
<stop stop-color="#EB6365"/>
<stop offset="1" stop-color="#7561A9"/>
</linearGradient>
<linearGradient id="paint77_linear_2791_108524" x1="-0.000537448" y1="11.7297" x2="198.128" y2="11.7297" gradientUnits="userSpaceOnUse">
<stop stop-color="#EB6365"/>
<stop offset="1" stop-color="#7561A9"/>
</linearGradient>
<clipPath id="clip0_2791_108524">
<rect width="204" height="40" fill="white"/>
</clipPath>
</defs>
</svg>
